<?xml version="1.0" standalone="no"?>
<!DOCTYPE svg PUBLIC "-//W3C//DTD SVG 20010904//EN"
 "http://www.w3.org/TR/2001/REC-SVG-20010904/DTD/svg10.dtd">
<svg version="1.0" xmlns="http://www.w3.org/2000/svg"
 width="504.000000pt" height="504.000000pt" viewBox="0 0 504.000000 504.000000"
 preserveAspectRatio="xMidYMid meet">
<metadata>
Created by potrace 1.14, written by Peter Selinger 2001-2017
</metadata>
<g transform="translate(0.000000,504.000000) scale(0.100000,-0.100000)"
fill="#000000" stroke="none">
<path d="M1891 4948 c-2 -15 42 -124 56 -138 12 -13 13 -12 5 10 -18 45 -60
135 -61 128z"/>
<path d="M3515 4785 c-33 -29 -44 -44 -33 -45 19 0 74 43 89 71 16 30 -2 22
-56 -26z"/>
<path d="M1901 4776 c-1 -11 7 -43 16 -73 14 -44 15 -59 5 -87 -9 -24 -9 -45
-1 -82 6 -27 12 -66 13 -86 1 -20 9 -45 18 -55 36 -42 62 -133 38 -133 -10 0
-7 -54 5 -89 5 -16 4 -21 -4 -17 -8 5 -8 0 0 -20 10 -28 10 -28 -11 -9 -20 18
-21 18 -34 0 -7 -10 -20 -16 -29 -12 -18 7 -31 -29 -15 -40 7 -4 8 -1 3 8 -4
8 3 3 16 -10 16 -17 19 -26 10 -29 -9 -3 -8 -9 5 -23 17 -19 17 -20 0 -13 -12
5 -19 1 -22 -14 -6 -22 -23 -23 -48 -3 -12 11 -16 11 -16 1 0 -22 23 -94 37
-115 13 -20 18 -55 7 -55 -3 0 -12 7 -21 15 -21 21 -33 10 -33 -31 0 -22 -6
-37 -15 -40 -8 -4 -15 -10 -15 -16 0 -5 5 -6 10 -3 6 3 10 1 10 -5 0 -6 -8
-10 -17 -8 -12 2 -22 -6 -29 -22 -12 -29 -50 -34 -78 -11 -18 15 -51 7 -41
-10 4 -5 0 -18 -8 -27 -8 -9 -17 -24 -20 -32 -4 -11 -6 -9 -6 6 -1 25 -23 74
-34 74 -15 0 -19 -28 -7 -50 10 -18 9 -24 -1 -31 -20 -13 -27 -11 -31 9 -3 15
-5 14 -16 -5 -11 -20 -9 -22 19 -28 22 -5 34 -3 40 6 4 7 11 10 16 6 4 -5 1
-12 -7 -17 -12 -7 -12 -11 0 -27 14 -17 14 -17 -6 -1 -18 16 -23 16 -40 3 -18
-14 -18 -14 -1 -15 10 0 17 -5 15 -12 -7 -19 -24 -20 -42 -3 -18 19 -21 4 -5
-27 17 -31 2 -34 -28 -4 -22 22 -24 29 -13 36 11 7 11 11 1 24 -17 20 -31 12
-31 -17 1 -22 21 -57 34 -57 5 0 16 -10 27 -22 20 -25 25 -58 9 -58 -5 0 -10
5 -10 11 0 5 -4 7 -10 4 -5 -3 -10 -15 -10 -26 0 -11 -4 -18 -9 -15 -16 10
-21 -38 -6 -61 13 -20 13 -22 0 -17 -8 4 -18 17 -21 30 -7 26 -14 30 -30 14
-7 -7 -15 3 -23 32 -7 23 -29 60 -48 82 -19 23 -46 72 -59 110 -28 82 -49 116
-70 116 -16 0 -13 -39 7 -107 16 -52 18 -112 3 -106 -16 6 -27 -45 -19 -94 5
-30 4 -35 -5 -23 -10 13 -11 12 -6 -4 4 -10 1 -33 -6 -51 -10 -28 -9 -37 6
-59 9 -15 14 -31 11 -36 -3 -6 1 -7 9 -4 9 3 16 2 16 -3 0 -12 71 -99 126
-154 37 -37 43 -47 30 -52 -11 -4 -16 -1 -16 11 -1 11 -6 8 -16 -11 -15 -27
-14 -30 6 -52 l21 -22 -38 -6 c-20 -4 -40 -2 -43 3 -3 5 -18 13 -33 19 -15 6
-32 22 -37 35 -12 32 -30 42 -30 17 0 -11 5 -23 10 -26 6 -4 10 -29 9 -56 -2
-40 -5 -48 -18 -44 -13 4 -16 -3 -13 -39 4 -43 3 -44 -32 -57 -39 -14 -40 -16
-27 -52 8 -22 7 -24 -10 -20 -11 3 -19 0 -19 -6 0 -7 5 -9 10 -6 6 3 10 1 10
-5 0 -6 4 -9 9 -5 14 8 25 -15 13 -27 -6 -6 -12 -6 -16 1 -11 18 -26 13 -26
-8 0 -11 -5 -23 -10 -26 -5 -3 -10 -1 -10 5 0 6 -4 9 -10 5 -5 -3 -7 -12 -3
-20 3 -8 0 -15 -6 -15 -7 0 -14 6 -17 13 -7 18 -44 19 -44 1 0 -8 5 -12 10 -9
21 13 9 -44 -15 -66 -30 -29 -32 -45 -6 -45 11 0 17 6 14 12 -2 7 5 17 16 23
25 14 31 14 31 0 0 -5 -4 -7 -10 -4 -6 3 -7 -1 -4 -9 7 -18 24 -22 24 -6 0 6
7 10 15 10 8 0 15 -9 15 -20 0 -13 -5 -18 -15 -14 -11 5 -15 -2 -15 -27 l0
-32 -25 23 c-21 20 -27 21 -38 10 -7 -8 -8 -11 -1 -7 7 4 15 0 18 -9 9 -24 7
-34 -6 -32 -9 2 -13 -10 -12 -39 0 -25 -3 -40 -9 -36 -6 4 -7 -5 -3 -23 4 -16
8 -40 8 -54 0 -14 4 -30 9 -36 13 -15 -8 -30 -48 -36 -25 -3 -33 -1 -33 10 0
13 -3 12 -19 -2 -18 -17 -19 -17 -24 1 -3 10 -5 4 -6 -14 -1 -32 -1 -33 -20
-14 -14 14 -17 29 -14 67 3 27 0 60 -5 74 -9 21 -10 17 -7 -22 2 -26 0 -50 -5
-53 -5 -3 -7 -12 -4 -19 3 -8 1 -17 -5 -21 -6 -3 -11 1 -11 9 0 8 -4 17 -9 21
-6 3 -8 -10 -5 -34 4 -33 1 -40 -16 -46 -11 -3 -20 -11 -20 -16 0 -5 -7 -9
-15 -9 -8 0 -15 5 -15 10 0 6 -10 10 -22 10 -17 0 -19 -3 -10 -12 7 -7 12 -17
12 -22 0 -6 -5 -4 -10 4 -5 8 -10 10 -10 4 0 -6 9 -19 20 -29 19 -18 20 -17
20 3 0 24 15 30 23 9 2 -7 3 -29 1 -50 -4 -30 -2 -35 11 -31 10 4 13 13 10 25
-4 11 -3 29 1 41 l7 23 8 -23 c5 -12 6 -28 3 -36 -3 -7 2 -16 10 -19 23 -9 20
-37 -3 -32 -17 3 -18 0 -10 -28 5 -17 6 -33 4 -36 -3 -2 -5 2 -5 9 0 9 -5 7
-16 -6 -8 -10 -13 -13 -9 -6 11 21 -12 13 -29 -10 -9 -13 -15 -18 -15 -13 3
23 -2 29 -10 16 -8 -12 -11 -9 -16 12 -4 15 -11 24 -17 21 -12 -8 -37 26 -31
42 2 6 -5 14 -15 16 -18 5 -110 144 -101 152 2 2 14 8 26 15 20 10 23 7 46
-54 14 -36 23 -74 20 -85 -3 -12 0 -20 7 -20 7 0 10 6 7 14 -4 10 0 12 14 9
23 -6 25 10 3 28 -9 7 -14 22 -11 36 2 12 1 20 -4 18 -4 -3 -10 3 -12 12 -3
10 -8 28 -12 41 -8 27 15 31 39 6 15 -14 16 -14 16 4 0 11 -6 35 -14 53 -7 19
-16 43 -20 54 -7 19 -8 19 -27 -7 -11 -15 -35 -32 -54 -38 -30 -10 -35 -16
-35 -44 0 -80 -52 -85 -113 -10 -20 26 -37 44 -37 42 0 -18 86 -167 106 -185
29 -26 46 -30 38 -8 -4 8 -1 15 5 15 6 0 11 -8 11 -17 0 -14 2 -15 9 -5 6 10
21 -3 55 -48 26 -33 44 -66 40 -72 -4 -6 -3 -8 3 -5 6 4 19 -3 29 -15 17 -19
17 -21 2 -15 -10 4 -18 3 -18 -2 0 -10 43 -50 53 -50 5 1 11 -2 14 -5 3 -2 -9
-3 -27 -1 -27 4 -30 2 -20 -10 7 -8 26 -14 43 -12 17 1 32 -3 34 -11 3 -8 -1
-10 -13 -5 -14 5 -16 3 -11 -11 6 -14 3 -17 -9 -12 -12 4 -14 1 -9 -14 3 -11
2 -27 -3 -36 -8 -15 -22 -4 -94 67 -52 52 -99 109 -121 150 -20 36 -44 72 -53
80 -12 10 -9 -2 10 -38 16 -28 26 -55 23 -60 -6 -10 146 -184 182 -210 12 -8
20 -22 19 -31 -2 -10 3 -16 11 -14 8 2 28 -10 45 -26 17 -15 53 -44 80 -63 27
-19 58 -43 71 -54 12 -11 30 -21 40 -23 22 -4 46 -27 38 -36 -4 -3 1 -6 10 -6
22 0 32 -42 17 -70 -6 -12 -9 -24 -6 -27 8 -8 -10 -37 -62 -105 -66 -83 -80
-109 -64 -115 6 -3 10 -9 6 -14 -3 -5 0 -9 6 -9 7 0 10 6 7 13 -2 7 4 23 14
36 26 32 24 19 -10 -58 -65 -149 -81 -190 -97 -252 -17 -67 -54 -147 -85 -188
-20 -25 -26 -81 -10 -81 20 0 81 43 81 56 0 8 5 14 10 14 6 0 10 9 10 20 0 31
16 24 34 -15 9 -19 19 -35 22 -35 3 0 22 16 42 35 20 19 40 35 44 35 5 0 30
16 56 34 61 44 139 79 148 65 3 -5 14 -7 23 -4 10 3 24 -1 31 -10 7 -8 24 -15
38 -15 20 0 23 3 14 12 -15 15 -16 32 -2 23 13 -8 62 30 52 40 -4 4 0 6 8 3
17 -6 16 -48 -2 -60 -7 -4 -10 -10 -6 -13 11 -11 47 46 41 63 -5 14 -4 15 8 6
8 -6 22 -14 33 -18 14 -5 17 -2 12 9 -3 9 0 15 9 15 21 0 27 -16 10 -30 -24
-20 -17 -31 17 -28 23 2 34 9 36 22 2 11 0 16 -6 12 -6 -3 -13 -2 -16 3 -3 5
3 11 13 14 22 6 49 -38 28 -47 -7 -2 -4 -5 6 -5 20 -1 24 -21 3 -21 -7 0 -19
-6 -25 -14 -9 -11 -7 -15 8 -19 11 -3 21 -1 23 3 2 4 14 10 28 14 16 5 20 4
12 -2 -7 -4 -14 -26 -17 -48 l-4 -39 15 33 c13 29 26 43 23 25 -1 -5 -1 -17 0
-28 2 -19 2 -19 16 -1 7 10 17 16 22 13 4 -3 37 1 73 8 92 18 93 18 112 38 16
18 17 17 21 -5 l4 -23 2 24 c1 19 5 23 26 19 14 -3 25 -1 25 4 0 5 6 16 14 23
12 12 15 11 20 -11 9 -34 26 -21 22 16 -3 24 0 30 16 30 13 0 18 5 15 14 -4 9
3 13 24 12 16 -1 29 -4 29 -8 0 -3 7 -8 15 -10 12 -2 10 -9 -9 -31 -13 -15
-28 -27 -34 -27 -5 0 -17 -10 -26 -22 -39 -57 -45 -61 -60 -49 -10 9 -16 9
-21 1 -4 -6 -13 -9 -20 -6 -10 4 -12 -11 -8 -67 5 -69 5 -71 -13 -57 -18 15
-18 14 -1 -12 10 -16 13 -28 7 -28 -5 0 -10 -4 -10 -9 0 -6 9 -8 20 -6 11 2
20 -1 20 -7 0 -5 6 -8 14 -5 8 3 17 -1 20 -9 6 -16 42 -19 51 -4 3 6 24 10 46
10 30 0 46 -6 64 -26 14 -15 25 -32 25 -39 0 -21 43 -27 58 -7 7 10 23 16 36
14 14 -2 35 7 51 21 30 26 35 57 20 129 -5 27 -3 47 8 70 8 18 19 45 22 61 8
30 13 32 36 14 69 -54 72 -58 61 -69 -14 -14 -16 -58 -4 -58 7 0 115 -82 145
-109 4 -4 0 -24 -8 -45 -30 -71 13 -107 80 -67 46 27 63 26 92 -1 13 -12 25
-19 28 -16 3 3 0 36 -7 73 l-13 67 -60 30 c-81 40 -129 78 -117 90 6 6 28 11
50 12 24 0 38 5 35 12 -2 6 15 19 39 30 24 10 46 22 49 27 3 5 9 -5 12 -22 5
-23 17 -36 49 -52 24 -12 63 -39 87 -60 24 -22 50 -39 57 -39 23 0 16 52 -11
92 -44 65 -36 64 84 -7 52 -31 96 -53 100 -50 3 3 1 9 -5 13 -188 128 -240
170 -232 192 2 7 19 0 44 -17 53 -37 73 -49 110 -68 17 -9 44 -29 59 -45 16
-17 34 -30 39 -31 6 0 21 -13 34 -29 21 -27 21 -29 4 -34 -19 -6 -42 -45 -42
-70 0 -20 20 -33 63 -41 28 -6 37 -4 37 7 0 8 5 19 12 26 14 14 37 3 88 -41
53 -46 48 -15 -9 57 -31 40 -46 66 -38 69 9 3 9 11 -1 38 -8 22 -9 35 -2 37 5
2 10 12 10 23 0 22 16 21 44 -3 11 -10 29 -18 41 -18 11 0 31 -7 43 -16 25
-17 22 -21 43 60 12 46 11 49 -9 65 -12 9 -30 32 -40 52 -15 29 -16 38 -5 48
10 9 13 6 13 -19 0 -18 4 -29 10 -25 6 3 10 -2 11 -12 1 -13 3 -10 9 7 7 23 8
21 21 -23 12 -42 16 -47 41 -47 32 0 35 7 11 25 -14 11 -15 15 -4 28 10 13 9
21 -10 46 -19 26 -21 33 -9 44 10 9 11 9 6 0 -7 -13 28 -55 39 -45 3 4 3 -2
-1 -12 -5 -12 -4 -17 3 -13 6 4 21 -2 33 -13 26 -23 36 -25 45 -10 4 7 16 1
30 -15 28 -30 35 -31 36 -7 0 10 3 12 6 4 2 -6 9 -10 13 -7 5 3 11 1 15 -5 3
-5 1 -10 -4 -10 -17 0 -13 -37 5 -44 13 -5 15 -2 11 16 -8 28 32 96 44 76 5
-7 2 -22 -6 -35 -18 -26 -19 -33 -5 -33 6 0 10 8 10 18 1 15 2 15 15 -2 15
-20 15 -20 16 0 0 17 1 17 11 -3 17 -36 27 -27 16 14 -8 30 -7 38 6 45 20 11
21 32 2 25 -20 -8 -27 3 -13 18 8 8 19 10 34 4 26 -9 42 6 24 24 -8 8 -11 7
-11 -3 0 -10 -3 -11 -11 -3 -15 15 -3 33 20 33 10 0 34 -7 54 -15 19 -8 38
-11 42 -7 4 4 5 -3 2 -16 -4 -19 -3 -21 8 -12 11 9 23 5 52 -17 21 -15 41 -32
44 -37 4 -5 11 -6 15 -3 5 3 34 -5 64 -19 30 -13 65 -23 78 -24 12 0 22 -6 22
-15 0 -8 9 -19 19 -25 26 -13 34 -13 28 3 -7 20 26 67 48 67 11 -1 49 -7 85
-15 177 -39 359 7 424 107 25 38 11 35 -22 -3 -42 -51 -142 -89 -142 -54 0 20
-24 19 -41 -1 -35 -43 -229 40 -229 97 0 10 5 21 10 24 18 11 11 43 -12 51
-13 4 -24 2 -26 -4 -8 -24 -97 21 -152 78 -47 49 -117 148 -79 112 7 -6 19
-12 27 -12 9 0 -5 21 -32 50 -25 27 -46 58 -46 69 0 17 -10 19 -132 26 -73 4
-397 5 -720 3 -322 -2 -584 -1 -582 1 2 2 46 15 96 28 175 44 338 122 338 162
0 11 5 31 11 44 9 20 -7 61 -114 303 -69 153 -152 337 -185 409 -52 113 -58
131 -44 141 8 6 12 16 8 23 -6 9 -11 9 -22 0 -15 -12 -44 44 -171 331 -48 109
-219 458 -229 469 -2 2 -7 1 -11 -3 -4 -4 7 -49 25 -100 l33 -92 -96 -198
c-52 -109 -95 -199 -95 -201 0 -1 -29 -63 -63 -136 -170 -358 -169 -355 -161
-395 4 -21 18 -48 32 -61 32 -30 156 -69 285 -89 56 -10 106 -20 111 -25 5 -4
-254 -8 -575 -8 l-584 0 120 42 c180 63 253 102 298 162 21 28 50 75 65 105
58 115 87 166 104 184 10 11 18 23 18 26 0 4 11 19 25 34 14 15 28 38 31 51 4
16 13 25 26 25 15 0 18 5 14 16 -8 20 21 67 35 58 6 -3 7 4 3 20 -4 16 -2 26
5 26 6 0 11 -7 11 -15 0 -20 16 -19 24 1 3 8 2 12 -4 9 -16 -10 -11 21 5 35
18 15 20 40 4 40 -12 0 -3 51 10 60 5 3 12 15 15 28 6 19 10 21 22 11 11 -9
14 -8 14 4 0 8 -5 17 -10 19 -11 3 4 67 18 77 12 9 42 76 42 94 0 9 5 19 10
22 6 3 10 19 10 35 0 16 4 31 9 34 5 3 12 18 16 33 7 29 49 120 152 328 35 72
79 168 97 215 32 80 209 447 222 459 9 8 0 -39 -26 -135 l-22 -82 52 -118 c29
-66 56 -123 61 -129 5 -5 9 -18 9 -30 0 -11 6 -29 13 -40 7 -11 25 -47 39 -80
40 -91 173 -392 291 -655 58 -129 144 -323 192 -430 47 -107 126 -283 175
-390 48 -107 120 -268 160 -356 56 -126 81 -170 113 -202 47 -46 158 -108 260
-147 78 -29 95 -31 77 -10 -6 8 -9 19 -5 25 4 6 1 9 -7 8 -15 -3 -114 189
-103 200 4 4 12 -1 19 -11 15 -19 32 -22 41 -6 4 5 -3 19 -16 30 -26 22 -31
23 -48 6 -10 -10 -12 -6 -10 19 2 17 -3 39 -11 49 -9 11 -10 19 -3 23 5 4 9
20 9 36 -1 16 4 35 11 42 8 7 9 15 4 19 -5 3 2 17 16 31 23 23 28 25 38 11 10
-14 15 -13 41 10 16 14 28 30 26 37 -2 6 0 8 4 3 4 -4 16 0 26 10 17 15 18 15
18 -6 0 -13 4 -19 10 -16 6 4 8 15 5 26 -5 14 -2 19 10 19 11 0 15 -5 11 -15
-4 -10 1 -15 14 -15 11 0 20 5 20 10 0 6 -5 10 -11 10 -6 0 -8 7 -5 16 18 48
18 62 -3 69 -14 4 -21 15 -21 31 0 14 -4 23 -10 19 -12 -8 -50 25 -50 44 0 12
-3 12 -12 3 -10 -10 -10 -15 1 -21 9 -6 11 -16 7 -27 -6 -16 -8 -16 -16 -4
-14 22 -11 62 5 84 11 14 15 16 15 5 0 -8 11 -15 27 -16 22 -1 24 1 10 8 -22
13 -21 21 4 37 17 11 20 11 17 -4 -2 -10 4 -18 15 -19 21 -4 22 4 1 33 -9 13
-14 34 -11 48 2 13 1 24 -3 24 -12 0 -20 -28 -13 -47 4 -11 3 -14 -5 -9 -7 4
-12 18 -12 32 0 14 -4 22 -10 19 -5 -3 -7 0 -4 8 3 8 -6 23 -20 35 -14 11 -26
23 -26 28 0 4 -8 16 -17 26 -10 12 -13 22 -8 26 6 4 10 14 10 22 0 8 6 14 13
12 6 -1 12 5 12 13 0 8 17 19 40 26 22 7 40 17 40 23 0 6 -12 28 -26 49 -33
49 -28 68 23 87 46 17 77 40 54 40 -32 0 -169 -54 -192 -76 -29 -27 -49 -31
-49 -9 0 22 -15 18 -28 -7 -8 -18 -11 -19 -11 -5 -1 9 -6 17 -11 17 -6 0 -2
10 9 22 22 22 18 43 -5 34 -20 -7 -19 48 1 64 17 14 10 34 -8 24 -7 -3 2 6 18
20 21 19 25 26 14 26 -22 0 -31 26 -14 40 7 6 18 24 25 40 7 17 19 30 27 30
11 0 11 4 3 21 -9 17 -8 25 7 41 18 20 17 20 -12 17 -17 -2 -36 0 -43 4 -8 6
-12 2 -12 -11 0 -34 -13 -33 -38 4 -13 19 -26 33 -30 30 -3 -4 4 -20 16 -36
12 -16 22 -41 22 -55 0 -26 -14 -33 -26 -14 -4 8 -9 7 -15 -2 -6 -11 -12 -9
-29 8 -24 26 -26 56 -5 73 8 7 15 18 15 25 0 7 7 18 15 25 8 7 13 16 10 20 -2
4 6 6 18 6 30 -3 42 5 26 16 -10 6 -5 8 16 6 24 -2 29 1 27 14 -2 13 2 16 14
11 14 -5 16 -3 11 11 -4 10 -3 15 3 11 6 -3 10 -2 10 3 0 12 77 32 119 32 20
0 34 7 41 19 16 30 13 44 -7 35 -10 -4 -38 -6 -62 -5 -36 2 -42 -1 -37 -14 4
-12 -6 -21 -42 -36 -26 -11 -57 -25 -70 -32 -19 -9 -25 -8 -32 3 -7 12 -10 12
-16 -3 -3 -9 -10 -17 -16 -17 -5 0 -6 5 -2 12 5 8 2 9 -9 5 -9 -3 -21 -1 -27
6 -57 67 -60 74 -34 84 13 5 13 7 2 14 -9 6 -7 9 10 9 12 0 22 5 22 10 0 6 11
23 25 38 24 26 25 26 25 5 0 -12 5 -25 11 -29 7 -4 9 0 5 14 -5 15 0 25 16 36
23 16 23 16 -10 10 -27 -5 -31 -4 -26 9 5 15 59 52 78 54 5 1 12 5 15 10 3 5
28 19 55 32 27 12 50 31 53 41 3 11 21 29 40 41 37 23 53 53 53 102 0 18 9 40
22 54 22 23 12 33 -10 11 -9 -9 -12 8 -12 77 0 110 5 130 36 144 13 6 24 15
24 20 0 11 -48 25 -77 22 -25 -3 -27 5 -14 62 l9 39 -23 -22 c-13 -12 -34 -48
-46 -79 -26 -64 -57 -111 -75 -111 -6 0 -14 -9 -17 -20 -3 -11 -9 -20 -14 -19
-4 1 -21 -3 -36 -9 -16 -7 -33 -10 -38 -6 -5 3 -9 -3 -9 -13 0 -15 -2 -16 -10
-3 -6 10 -3 21 10 35 25 26 25 36 3 28 -16 -6 -17 -5 -3 13 20 27 68 73 96 91
30 19 31 35 2 32 -13 -1 -31 2 -41 6 -17 7 -17 9 2 27 12 10 21 28 21 39 0 13
6 19 17 17 11 -2 18 3 18 13 0 21 103 131 116 124 5 -4 9 3 9 14 0 32 -23 25
-69 -19 -23 -23 -47 -38 -53 -34 -7 5 -9 -1 -4 -19 3 -15 1 -29 -6 -33 -7 -5
-8 -3 -3 5 6 10 3 11 -14 2 -11 -7 -21 -16 -21 -22 0 -6 5 -7 12 -3 7 4 8 3 4
-5 -4 -6 -12 -8 -18 -5 -5 3 -27 -12 -49 -35 -38 -40 -59 -51 -59 -32 0 5 20
35 44 68 61 82 71 103 55 114 -28 17 -55 1 -94 -58 -40 -60 -85 -96 -85 -67 0
21 -16 17 -33 -8 -11 -17 -18 -20 -27 -12 -9 9 -7 22 10 55 l22 44 -37 -37
c-39 -41 -51 -47 -41 -23 4 12 0 12 -21 -2 -19 -13 -25 -14 -19 -4 7 11 4 13
-12 9 -16 -5 -22 -2 -22 10 0 10 -3 13 -8 7 -8 -12 -32 -13 -49 -2 -6 4 -13 1
-16 -5 -2 -7 -8 -10 -12 -6 -7 7 41 53 99 95 56 41 116 95 116 105 0 6 -7 4
-16 -3 -9 -7 -24 -18 -34 -24 -157 -91 -155 -90 -208 -97 -7 -1 -24 -12 -38
-25 -14 -12 -29 -23 -35 -23 -5 0 -9 -5 -9 -11 0 -6 -9 -9 -20 -6 -18 5 -34
-7 -35 -25 0 -11 -20 -10 -20 1 0 8 97 121 147 172 9 10 18 28 20 41 2 13 10
23 18 23 8 0 16 10 18 23 3 21 12 26 40 23 6 -1 12 3 12 9 0 5 -6 10 -12 10
-7 0 -1 10 15 21 34 26 34 35 0 44 -19 4 -34 0 -54 -14 -16 -12 -33 -21 -39
-21 -6 0 -37 -25 -69 -55 -32 -30 -62 -55 -67 -55 -5 0 -15 12 -22 27 -11 24
-10 31 9 56 11 16 18 34 15 42 -7 20 -48 23 -76 4 -38 -25 -82 -33 -78 -15 3
16 175 176 188 176 5 0 11 -13 14 -30 3 -16 9 -43 12 -59 6 -33 28 -56 44 -46
14 9 13 82 -2 88 -10 4 -10 7 -1 14 20 14 36 65 38 121 1 28 -2 52 -5 52 -4 0
-29 -26 -56 -58 -77 -91 -250 -237 -330 -280 -23 -12 -104 -12 -104 0 0 4 6 8
13 8 6 0 -3 8 -20 16 -28 14 -35 14 -49 3 -15 -12 -16 -11 -9 10 7 22 5 23
-19 19 -15 -3 -28 -2 -31 2 -2 4 16 36 41 71 24 35 42 70 39 78 -3 8 4 25 16
38 13 12 19 23 15 23 -15 0 -85 -40 -129 -74 -49 -37 -54 -38 -37 -5 15 27 -5
24 -23 -4 -14 -21 -47 -33 -47 -17 0 4 26 40 57 81 56 73 47 69 -49 -24 -27
-27 -51 -47 -53 -45 -14 13 16 51 81 102 41 32 82 72 90 88 14 28 14 29 -3 19
-10 -6 -47 -32 -82 -57 -57 -42 -63 -44 -57 -23 7 23 7 23 -14 -3 -25 -32
-111 -95 -156 -114 -25 -11 -34 -11 -37 -1 -3 6 -6 -2 -6 -18 -1 -17 4 -36 10
-42 7 -7 2 -10 -18 -9 -16 1 -38 -8 -52 -22 -17 -16 -27 -19 -36 -12 -9 8 -14
5 -18 -11 -3 -11 -10 -18 -16 -15 -5 4 -12 2 -16 -4 -10 -15 -42 -12 -61 7
-15 16 -18 15 -36 -10 -26 -35 -40 -34 -57 6 -8 17 -28 50 -46 72 -48 62 -59
96 -45 141 13 38 12 39 -25 71 -21 18 -49 33 -62 33 -19 0 -29 10 -48 53 -13
28 -24 43 -24 33z m1340 -593 c-12 -20 -14 -14 -5 12 4 9 9 14 11 11 3 -2 0
-13 -6 -23z m834 -532 c0 -146 -6 -181 -26 -151 -11 18 -7 63 11 106 7 17 10
39 7 49 -6 15 -11 13 -37 -15 -31 -33 -50 -33 -50 1 0 26 32 88 37 72 2 -7 -1
-22 -7 -33 -6 -12 -9 -24 -6 -27 8 -8 28 48 22 63 -6 16 17 63 36 75 7 5 13 9
13 9 0 0 0 -67 0 -149z m-65 -197 c0 -8 5 -14 11 -14 8 0 7 -6 -2 -16 -12 -15
-14 -14 -20 7 -4 14 -7 17 -8 8 -1 -9 -8 -20 -17 -23 -12 -4 -15 -2 -10 9 3 8
1 15 -4 15 -6 0 -10 6 -10 13 0 7 13 13 30 13 19 1 30 -3 30 -12z m-346 -315
c-8 -14 -24 -10 -24 6 0 9 6 12 15 9 8 -4 12 -10 9 -15z m163 -581 c-3 -8 -6
-5 -6 6 -1 11 2 17 5 13 3 -3 4 -12 1 -19z m223 -375 c0 -7 -4 -13 -10 -13 -5
0 -10 -10 -10 -22 0 -16 -3 -19 -9 -10 -12 19 -2 59 15 59 8 0 14 -6 14 -14z
m-120 -43 c-6 -11 -13 -20 -15 -20 -3 0 -5 9 -5 20 0 11 7 20 15 20 13 0 14
-4 5 -20z m-3434 -47 c-7 -7 -26 7 -26 19 0 6 6 6 15 -2 9 -7 13 -15 11 -17z
m3504 -14 c0 -10 -4 -19 -10 -19 -5 0 -10 4 -10 9 0 5 -3 17 -6 25 -5 12 -2
15 10 10 9 -3 16 -15 16 -25z m-3140 -324 c0 -8 -2 -15 -4 -15 -2 0 -6 7 -10
15 -3 8 -1 15 4 15 6 0 10 -7 10 -15z m3006 -30 c0 -21 -4 -31 -9 -26 -8 8 -2
61 6 61 2 0 3 -16 3 -35z m-3068 -30 c-3 -3 -9 2 -12 12 -6 14 -5 15 5 6 7 -7
10 -15 7 -18z m42 -25 c0 -5 -5 -10 -11 -10 -5 0 -7 5 -4 10 3 6 8 10 11 10 2
0 4 -4 4 -10z m3050 -34 c0 -3 -4 -8 -10 -11 -5 -3 -10 -1 -10 4 0 6 5 11 10
11 6 0 10 -2 10 -4z m-1700 -660 c0 -8 11 -23 24 -33 13 -10 27 -30 31 -43 l7
-25 -17 23 c-22 30 -37 28 -25 -4 9 -22 8 -25 -6 -20 -8 3 -20 6 -25 6 -6 0
-8 4 -4 9 3 5 1 12 -5 16 -5 3 -10 1 -10 -4 0 -6 -6 -11 -14 -11 -8 0 -12 9
-10 25 5 47 54 102 54 61z m40 -8 c0 -16 -3 -19 -11 -11 -6 6 -8 16 -5 22 11
17 16 13 16 -11z m1650 -68 c0 -5 -2 -10 -4 -10 -3 0 -8 5 -11 10 -3 6 -1 10
4 10 6 0 11 -4 11 -10z m-581 -86 c17 11 34 -13 27 -39 l-7 -28 -15 22 c-9 12
-20 18 -26 15 -6 -4 -8 1 -4 14 4 11 2 23 -3 27 -7 4 -7 11 2 20 10 11 13 9
15 -11 2 -13 7 -22 11 -20z m-2065 12 c-3 -9 -10 -16 -15 -16 -6 0 -5 9 1 21
13 24 24 20 14 -5z m621 8 c-9 -9 -19 -13 -23 -10 -3 4 0 11 8 16 24 15 33 11
15 -6z m-595 -9 c0 -8 -4 -15 -10 -15 -5 0 -7 7 -4 15 4 8 8 15 10 15 2 0 4
-7 4 -15z m2416 -16 c-5 -35 -13 -46 -23 -35 -4 4 -1 11 6 15 9 6 10 10 2 12
-7 3 -9 12 -6 22 12 29 27 19 21 -14z m-1866 1 c0 -11 -4 -20 -9 -20 -5 0 -7
9 -4 20 3 11 7 20 9 20 2 0 4 -9 4 -20z m1820 -10 c0 -5 -2 -10 -4 -10 -3 0
-8 5 -11 10 -3 6 -1 10 4 10 6 0 11 -4 11 -10z m-1857 -20 c-3 -11 -9 -20 -14
-20 -11 0 -11 3 -3 24 9 23 23 20 17 -4z m-33 0 c0 -5 -5 -10 -11 -10 -5 0 -7
5 -4 10 3 6 8 10 11 10 2 0 4 -4 4 -10z m1440 -115 c0 -5 -5 -3 -10 5 -5 8
-10 20 -10 25 0 6 5 3 10 -5 5 -8 10 -19 10 -25z"/>
<path d="M4439 4728 c-105 -169 -257 -383 -332 -465 -38 -42 -55 -69 -47 -71
7 -3 17 3 22 12 5 9 20 16 32 16 45 0 204 222 293 410 24 52 51 107 59 123 25
46 8 30 -27 -25z"/>
<path d="M2505 4710 c-3 -5 -3 -15 1 -21 6 -11 23 6 24 24 0 10 -18 9 -25 -3z"/>
<path d="M3560 4675 c0 -11 4 -27 10 -35 8 -12 10 -12 16 4 4 11 0 24 -10 34
-15 15 -16 15 -16 -3z"/>
<path d="M4440 4650 c0 -5 5 -10 10 -10 6 0 10 5 10 10 0 6 -4 10 -10 10 -5 0
-10 -4 -10 -10z"/>
<path d="M2213 4493 c-12 -8 -19 -21 -16 -29 8 -20 19 -17 37 10 19 30 9 39
-21 19z"/>
<path d="M2205 4430 c-3 -5 1 -10 9 -10 9 0 16 5 16 10 0 6 -4 10 -9 10 -6 0
-13 -4 -16 -10z"/>
<path d="M3580 4396 c-6 -9 -10 -21 -8 -28 3 -8 9 -4 17 10 15 28 9 39 -9 18z"/>
<path d="M1842 4361 c7 -11 16 -17 20 -15 5 3 2 12 -6 20 -21 20 -28 17 -14
-5z"/>
<path d="M3676 4354 c-11 -8 -16 -14 -10 -14 13 0 39 18 34 24 -3 2 -14 -2
-24 -10z"/>
<path d="M2955 4350 c-3 -5 -1 -10 4 -10 6 0 11 5 11 10 0 6 -2 10 -4 10 -3 0
-8 -4 -11 -10z"/>
<path d="M1930 4306 c0 -15 18 -31 26 -23 7 7 -7 37 -17 37 -5 0 -9 -6 -9 -14z"/>
<path d="M3580 4269 c0 -5 5 -7 10 -4 6 3 10 8 10 11 0 2 -4 4 -10 4 -5 0 -10
-5 -10 -11z"/>
<path d="M1827 4243 c-12 -11 -8 -40 8 -53 12 -10 15 -10 15 4 0 9 -4 16 -9
16 -5 0 -7 9 -4 20 5 20 2 25 -10 13z"/>
<path d="M1857 4123 c-12 -12 -7 -22 8 -17 8 4 15 10 15 15 0 11 -14 12 -23 2z"/>
<path d="M1720 4084 c0 -8 5 -12 10 -9 6 4 8 11 5 16 -9 14 -15 11 -15 -7z"/>
<path d="M3306 4054 c-4 -10 -1 -14 6 -12 15 5 23 28 10 28 -5 0 -13 -7 -16
-16z"/>
<path d="M1700 4036 c0 -8 5 -18 10 -21 6 -3 10 3 10 14 0 12 -4 21 -10 21 -5
0 -10 -6 -10 -14z"/>
<path d="M3710 4035 c-7 -9 -10 -18 -7 -21 3 -3 10 4 17 15 13 25 8 27 -10 6z"/>
<path d="M1750 4011 c0 -6 5 -13 10 -16 6 -3 10 1 10 9 0 9 -4 16 -10 16 -5 0
-10 -4 -10 -9z"/>
<path d="M4199 3888 c0 -22 -1 -22 -9 -3 -7 19 -8 19 -15 2 -13 -32 10 -41 44
-16 32 24 32 39 0 39 -13 0 -19 -7 -20 -22z"/>
<path d="M1561 3850 c0 -8 4 -24 9 -35 5 -13 9 -14 9 -5 0 8 -4 24 -9 35 -5
13 -9 14 -9 5z"/>
<path d="M1370 3656 c0 -15 18 -31 26 -23 7 7 -7 37 -17 37 -5 0 -9 -6 -9 -14z"/>
<path d="M1493 3643 c9 -9 20 -13 24 -9 4 4 1 11 -7 16 -25 16 -35 11 -17 -7z"/>
<path d="M593 3613 c9 -2 23 -2 30 0 6 3 -1 5 -18 5 -16 0 -22 -2 -12 -5z"/>
<path d="M295 3509 c-4 -6 -1 -15 6 -20 21 -13 31 -11 27 8 -4 20 -24 28 -33
12z"/>
<path d="M4211 3464 c0 -11 3 -14 6 -6 3 7 2 16 -1 19 -3 4 -6 -2 -5 -13z"/>
<path d="M900 3430 c0 -5 5 -10 10 -10 6 0 10 5 10 10 0 6 -4 10 -10 10 -5 0
-10 -4 -10 -10z"/>
<path d="M4115 3360 c3 -5 8 -10 11 -10 2 0 4 5 4 10 0 6 -5 10 -11 10 -5 0
-7 -4 -4 -10z"/>
<path d="M4352 3254 c-15 -53 -34 -69 -61 -54 -17 9 -20 8 -15 -5 6 -14 -6
-74 -22 -121 -5 -14 0 -12 23 9 37 34 96 158 91 189 -3 18 -7 15 -16 -18z"/>
<path d="M2510 3265 c0 -8 5 -15 10 -15 6 0 10 -9 10 -20 0 -11 5 -20 10 -20
16 0 12 37 -6 54 -19 20 -24 20 -24 1z"/>
<path d="M1170 3253 c0 -5 5 -15 10 -23 7 -12 9 -10 7 8 -1 19 -17 33 -17 15z"/>
<path d="M3870 3172 c0 -9 7 -13 20 -9 11 3 20 1 20 -5 0 -5 5 -6 10 -3 15 9
4 22 -25 27 -18 4 -25 1 -25 -10z"/>
<path d="M1200 3171 c0 -11 31 -24 39 -16 3 3 -1 10 -9 15 -19 12 -30 12 -30
1z"/>
<path d="M3800 3170 c0 -5 5 -10 10 -10 6 0 10 5 10 10 0 6 -4 10 -10 10 -5 0
-10 -4 -10 -10z"/>
<path d="M2555 3141 c-6 -11 9 -23 19 -14 9 9 7 23 -3 23 -6 0 -12 -4 -16 -9z"/>
<path d="M3744 3129 c-9 -16 2 -22 21 -11 15 8 16 10 1 15 -8 3 -18 2 -22 -4z"/>
<path d="M1182 3119 c2 -7 10 -15 17 -17 8 -3 12 1 9 9 -2 7 -10 15 -17 17 -8
3 -12 -1 -9 -9z"/>
<path d="M810 3096 c0 -8 5 -18 10 -21 6 -3 10 1 10 9 0 8 -4 18 -10 21 -5 3
-10 -1 -10 -9z"/>
<path d="M1204 3064 c3 -9 6 -18 6 -20 0 -2 4 -4 9 -4 5 0 7 9 4 20 -3 11 -10
20 -15 20 -6 0 -7 -7 -4 -16z"/>
<path d="M1330 3025 c-7 -9 -11 -18 -8 -20 3 -3 11 1 18 10 7 9 11 18 8 20 -3
3 -11 -1 -18 -10z"/>
<path d="M990 3000 c0 -11 4 -20 9 -20 5 0 7 9 4 20 -3 11 -7 20 -9 20 -2 0
-4 -9 -4 -20z"/>
<path d="M1090 2875 c0 -8 5 -15 11 -15 6 0 8 -9 4 -20 -5 -14 -2 -20 9 -20
19 0 20 9 6 44 -10 28 -30 35 -30 11z"/>
<path d="M3930 2870 c0 -5 5 -10 10 -10 6 0 10 5 10 10 0 6 -4 10 -10 10 -5 0
-10 -4 -10 -10z"/>
<path d="M1122 2801 c-8 -4 -8 -11 -1 -21 8 -11 12 -12 16 -2 2 6 9 10 14 6 5
-3 9 -1 9 4 0 13 -24 22 -38 13z"/>
<path d="M990 2770 c-13 -8 -13 -11 2 -26 14 -14 20 -15 33 -4 12 10 13 16 4
26 -13 16 -19 17 -39 4z"/>
<path d="M2010 2756 c0 -9 5 -16 10 -16 6 0 10 4 10 9 0 6 -4 13 -10 16 -5 3
-10 -1 -10 -9z"/>
<path d="M1030 2650 c0 -5 7 -10 15 -10 8 0 15 5 15 10 0 6 -7 10 -15 10 -8 0
-15 -4 -15 -10z"/>
<path d="M3920 2640 c0 -5 5 -10 11 -10 5 0 7 5 4 10 -3 6 -8 10 -11 10 -2 0
-4 -4 -4 -10z"/>
<path d="M900 2534 c0 -27 -4 -43 -10 -39 -5 3 -10 1 -10 -4 0 -6 6 -11 13
-11 15 0 41 75 32 90 -14 23 -25 7 -25 -36z"/>
<path d="M4260 2531 c0 -5 7 -14 15 -21 12 -10 15 -10 15 3 0 8 -7 17 -15 21
-8 3 -15 2 -15 -3z"/>
<path d="M856 2463 c-11 -11 -6 -23 9 -23 8 0 15 4 15 9 0 13 -16 22 -24 14z"/>
<path d="M652 2430 c-14 -24 -16 -60 -2 -60 6 0 10 9 10 19 0 26 17 36 24 14
2 -10 14 -62 27 -115 12 -54 23 -98 26 -98 2 0 1 37 -3 82 -4 58 -13 96 -30
130 -27 53 -34 57 -52 28z"/>
<path d="M4223 2323 c-18 -6 -16 -23 1 -23 17 0 30 16 19 23 -5 2 -14 2 -20 0z"/>
<path d="M1830 2300 c0 -5 5 -10 11 -10 5 0 7 5 4 10 -3 6 -8 10 -11 10 -2 0
-4 -4 -4 -10z"/>
<path d="M977 2253 c-13 -12 -7 -53 7 -53 8 0 13 11 12 30 -1 30 -6 36 -19 23z"/>
<path d="M4116 2184 c-8 -21 11 -45 30 -37 20 7 14 47 -7 51 -9 2 -19 -5 -23
-14z"/>
<path d="M1840 2106 c0 -8 5 -18 10 -21 6 -3 10 3 10 14 0 12 -4 21 -10 21 -5
0 -10 -6 -10 -14z"/>
<path d="M1890 2095 c0 -8 5 -15 10 -15 6 0 10 7 10 15 0 8 -4 15 -10 15 -5 0
-10 -7 -10 -15z"/>
<path d="M4105 2080 c-4 -6 -11 -8 -16 -5 -5 4 -9 1 -9 -4 0 -16 16 -13 30 4
7 8 10 15 7 15 -3 0 -9 -5 -12 -10z"/>
<path d="M4120 2016 c0 -31 6 -34 13 -6 3 11 1 23 -4 26 -5 3 -9 -6 -9 -20z"/>
<path d="M545 1990 c3 -5 8 -10 11 -10 2 0 4 5 4 10 0 6 -5 10 -11 10 -5 0 -7
-4 -4 -10z"/>
<path d="M717 1959 c4 -13 8 -18 11 -10 2 7 -1 18 -6 23 -8 8 -9 4 -5 -13z"/>
<path d="M4235 1970 c-3 -6 1 -7 9 -4 18 7 21 14 7 14 -6 0 -13 -4 -16 -10z"/>
<path d="M4152 1950 c0 -14 2 -19 5 -12 2 6 2 18 0 25 -3 6 -5 1 -5 -13z"/>
<path d="M4170 1944 c0 -8 5 -12 10 -9 6 3 10 10 10 16 0 5 -4 9 -10 9 -5 0
-10 -7 -10 -16z"/>
<path d="M3376 1912 c-2 -4 -1 -14 5 -22 7 -12 9 -10 9 8 0 23 -5 28 -14 14z"/>
<path d="M3941 1781 c-8 -5 -9 -11 -3 -15 5 -3 12 1 16 9 6 17 6 18 -13 6z"/>
<path d="M640 1769 c0 -5 5 -7 10 -4 6 3 10 8 10 11 0 2 -4 4 -10 4 -5 0 -10
-5 -10 -11z"/>
<path d="M3987 1759 c-4 -15 -1 -19 10 -17 22 4 27 24 9 31 -8 3 -16 -2 -19
-14z"/>
<path d="M690 1735 c0 -8 5 -15 10 -15 6 0 10 7 10 15 0 8 -4 15 -10 15 -5 0
-10 -7 -10 -15z"/>
<path d="M3897 1730 c6 -9 11 -27 9 -40 -2 -21 2 -25 23 -25 14 0 31 4 38 8 6
4 13 1 16 -5 2 -7 8 -10 12 -6 5 5 1 16 -8 26 -10 10 -17 24 -17 30 0 15 -16
16 -25 2 -4 -6 -17 -3 -33 7 -21 14 -24 14 -15 3z"/>
<path d="M4057 1733 c-4 -3 -7 -11 -7 -17 0 -6 5 -5 12 2 6 6 9 14 7 17 -3 3
-9 2 -12 -2z"/>
<path d="M3980 1719 c0 -5 5 -7 10 -4 6 3 10 8 10 11 0 2 -4 4 -10 4 -5 0 -10
-5 -10 -11z"/>
<path d="M4010 1703 c0 -6 5 -15 11 -18 6 -4 8 -14 5 -22 -3 -8 -1 -11 4 -8
14 8 13 18 -5 41 -8 10 -15 14 -15 7z"/>
<path d="M4080 1685 c0 -8 6 -18 13 -22 18 -11 28 -41 17 -48 -6 -4 -10 -11
-10 -16 0 -6 4 -8 9 -4 5 3 12 -4 16 -15 4 -11 11 -17 17 -14 7 4 6 9 -2 14
-7 5 -8 10 -2 14 5 3 20 -3 32 -14 13 -11 28 -20 34 -20 6 0 -4 10 -21 23 -18
12 -33 28 -33 36 0 8 -7 22 -16 32 -15 16 -14 17 8 11 22 -5 22 -5 5 13 -23
22 -67 29 -67 10z"/>
<path d="M4050 1659 c0 -5 5 -7 10 -4 6 3 10 8 10 11 0 2 -4 4 -10 4 -5 0 -10
-5 -10 -11z"/>
<path d="M650 1640 c6 -11 16 -20 22 -20 6 0 3 9 -7 20 -10 11 -20 20 -22 20
-2 0 1 -9 7 -20z"/>
<path d="M4070 1635 c0 -8 -4 -15 -9 -15 -5 0 -7 -9 -4 -20 7 -27 19 -25 27 3
8 32 7 47 -4 47 -5 0 -10 -7 -10 -15z"/>
<path d="M744 1495 c21 -16 32 -13 21 4 -3 6 -14 11 -23 11 -15 -1 -15 -2 2
-15z"/>
<path d="M3093 1494 c-7 -20 11 -38 32 -30 13 4 14 10 5 26 -13 24 -28 26 -37
4z"/>
<path d="M3965 1470 c-4 -6 -3 -16 3 -22 6 -6 12 -6 17 2 4 6 3 16 -3 22 -6 6
-12 6 -17 -2z"/>
<path d="M940 1441 c0 -5 5 -13 10 -16 6 -3 10 -2 10 4 0 5 -4 13 -10 16 -5 3
-10 2 -10 -4z"/>
<path d="M3855 830 c3 -5 16 -10 28 -10 18 0 19 2 7 10 -20 13 -43 13 -35 0z"/>
<path d="M3827 822 c-3 -4 1 -13 9 -19 7 -7 15 -9 17 -5 3 4 -1 13 -9 19 -7 7
-15 9 -17 5z"/>
<path d="M1366 783 c-6 -14 -5 -15 5 -6 7 7 10 15 7 18 -3 3 -9 -2 -12 -12z"/>
<path d="M3810 790 c0 -5 5 -10 11 -10 5 0 7 5 4 10 -3 6 -8 10 -11 10 -2 0
-4 -4 -4 -10z"/>
<path d="M1296 742 c-3 -6 -1 -14 5 -18 8 -4 7 -9 -2 -15 -11 -7 -10 -9 3 -9
24 0 30 14 14 35 -8 12 -15 14 -20 7z"/>
<path d="M1350 735 c-7 -9 -10 -18 -7 -22 8 -7 37 15 37 28 0 14 -16 11 -30
-6z"/>
<path d="M1860 730 c20 -13 33 -13 25 0 -3 6 -14 10 -23 10 -15 0 -15 -2 -2
-10z"/>
<path d="M1482 639 c2 -7 10 -15 17 -17 8 -3 12 1 9 9 -2 7 -10 15 -17 17 -8
3 -12 -1 -9 -9z"/>
<path d="M3830 533 c1 -18 18 -35 24 -24 4 6 4 16 1 21 -7 12 -25 13 -25 3z"/>
<path d="M2890 506 c0 -8 5 -18 10 -21 6 -3 10 3 10 14 0 12 -4 21 -10 21 -5
0 -10 -6 -10 -14z"/>
<path d="M3350 461 c0 -5 5 -13 10 -16 6 -3 10 -2 10 4 0 5 -4 13 -10 16 -5 3
-10 2 -10 -4z"/>
<path d="M3410 412 c0 -4 9 -13 20 -20 16 -10 20 -10 20 2 0 8 6 16 13 19 6 2
-3 4 -20 5 -18 0 -33 -2 -33 -6z"/>
<path d="M3435 329 c-4 -6 -5 -11 -4 -13 2 -1 21 -14 42 -29 33 -25 37 -26 37
-9 0 20 -39 62 -58 62 -6 0 -14 -5 -17 -11z"/>
<path d="M3752 239 c2 -7 10 -15 17 -17 8 -3 12 1 9 9 -2 7 -10 15 -17 17 -8
3 -12 -1 -9 -9z"/>
<path d="M2235 100 c-14 -15 -16 -23 -7 -32 8 -8 14 -4 22 17 13 35 8 41 -15
15z"/>
</g>
</svg>
