<svg version="1.1" xmlns="http://www.w3.org/2000/svg" xmlns:xlink="http://www.w3.org/1999/xlink" width="504.000000pt" height="495.000000pt" viewBox="0,0,256,251.425"><g fill="#2f343f" fill-rule="nonzero" stroke="none" stroke-width="1" stroke-linecap="butt" stroke-linejoin="miter" stroke-miterlimit="10" stroke-dasharray="" stroke-dashoffset="0" font-family="none" font-weight="none" font-size="none" text-anchor="none" style="mix-blend-mode: normal"><g transform="translate(-4.27302,-3.72867) scale(0.50794,0.50794)"><g transform="translate(0,495) scale(0.1,-0.1)"><path d="M3518,4740c-18,-16 -28,-30 -22,-30c5,0 23,14 39,30c37,39 25,39 -17,0z"></path><path d="M1901,4739c-1,-4 8,-37 19,-73c16,-49 18,-71 10,-85c-15,-28 -12,-80 6,-135c14,-40 14,-50 3,-56c-10,-7 -8,-13 12,-29c14,-11 34,-38 44,-60c16,-37 17,-47 5,-98c-11,-53 -11,-58 8,-73c15,-13 17,-21 10,-34c-5,-10 -7,-27 -4,-39c4,-18 0,-16 -25,11c-33,37 -47,26 -29,-23c7,-19 7,-32 1,-38c-7,-7 -6,-17 1,-31c8,-15 8,-21 -1,-24c-6,-2 -11,-12 -11,-22c0,-9 -7,-23 -15,-30c-9,-7 -13,-21 -10,-30c4,-14 1,-16 -21,-12c-24,4 -25,3 -15,-16c6,-12 16,-24 21,-27c15,-9 12,-19 -10,-45c-11,-13 -20,-27 -20,-32c0,-4 -5,-8 -11,-8c-7,0 -9,11 -6,30c4,16 2,32 -3,35c-6,4 -10,-10 -11,-32c-1,-42 -8,-68 -26,-98c-11,-17 -14,-18 -23,-5c-8,12 -10,9 -10,-14c0,-21 -4,-27 -15,-22c-11,4 -15,-1 -15,-19c0,-18 -4,-23 -15,-19c-8,4 -13,10 -10,14c7,11 -32,43 -44,35c-6,-3 -11,-13 -11,-21c0,-8 -4,-14 -10,-14c-20,0 -10,-17 18,-30l27,-12l-32,-16c-18,-9 -33,-19 -33,-24c0,-4 -7,-8 -16,-8c-20,0 -42,-22 -37,-37c2,-6 -1,-14 -6,-18c-6,-3 -11,-19 -11,-35c0,-16 -6,-35 -13,-42c-15,-13 -11,-48 5,-48c5,0 6,-5 3,-10c-4,-6 -10,-8 -15,-5c-5,3 -11,1 -15,-5c-6,-10 7,-14 33,-11c6,1 12,-3 12,-9c0,-5 -5,-9 -11,-7c-6,1 -14,-4 -17,-12c-3,-9 0,-11 8,-6c10,6 11,3 6,-11c-5,-10 -11,-27 -13,-36c-3,-10 -9,-15 -14,-12c-5,3 -6,-1 -3,-9c3,-8 1,-18 -5,-21c-5,-4 -13,4 -17,16c-7,24 -39,58 -80,85c-16,10 -30,35 -40,70c-10,33 -27,64 -44,79c-18,17 -39,56 -59,113c-18,49 -41,97 -51,106c-19,18 -20,17 -20,-7c0,-14 6,-43 13,-64c8,-22 17,-70 20,-109c6,-63 5,-67 -8,-45l-13,25l-13,-27c-9,-21 -9,-33 1,-57c7,-17 8,-35 4,-43c-5,-7 -14,-28 -20,-46c-11,-31 -9,-36 34,-95c25,-34 54,-68 64,-75c10,-7 18,-18 18,-25c0,-7 22,-33 50,-58c41,-37 48,-50 43,-70c-3,-13 -7,-37 -8,-54c-1,-16 -3,-38 -3,-47c-2,-24 -17,-23 -53,3c-16,11 -36,18 -44,15c-10,-3 -12,0 -9,12c3,9 -3,5 -13,-11c-10,-15 -30,-33 -45,-40c-22,-9 -28,-19 -28,-42c0,-35 -15,-55 -41,-55c-36,0 -35,-22 8,-118c19,-42 13,-48 -21,-21c-26,20 -28,20 -40,4c-7,-10 -18,-15 -23,-12c-6,4 -10,-1 -9,-11c0,-9 -6,-17 -14,-17c-17,0 -30,-14 -30,-32c0,-9 7,-10 26,-3c34,13 34,13 34,-9c0,-11 4,-22 9,-25c12,-8 1,-58 -18,-80c-9,-10 -25,-22 -36,-26c-11,-4 -20,-16 -20,-26c0,-11 -6,-18 -12,-16c-16,3 -17,-15 -1,-20c7,-3 9,-12 5,-22c-4,-9 -11,-14 -17,-11c-5,3 -10,-1 -10,-9c0,-9 7,-16 15,-16c8,0 15,-5 15,-11c0,-5 -5,-7 -12,-3c-6,4 -8,3 -5,-3c4,-6 9,-36 11,-67c3,-42 1,-54 -8,-48c-16,14 -66,21 -72,11c-3,-5 -12,-9 -21,-9c-9,0 -22,-8 -29,-17c-18,-24 -48,-6 -52,32l-4,27l-16,-23c-9,-13 -16,-27 -14,-31c1,-5 -2,-8 -8,-8c-16,0 -12,-17 16,-76c23,-49 24,-58 13,-91c-15,-46 -43,-77 -63,-70c-10,4 -13,1 -9,-9c11,-29 -36,-14 -72,24c-40,41 -155,209 -155,227c0,15 21,35 37,35c12,0 32,-36 62,-113c6,-15 15,-27 20,-27c5,0 -4,34 -21,76c-16,42 -27,79 -24,82c3,3 17,0 31,-6c31,-14 32,-6 8,63c-15,45 -17,47 -26,28c-5,-12 -29,-31 -54,-43c-24,-11 -41,-25 -38,-30c12,-19 -15,-80 -36,-80c-20,0 -26,-15 -9,-25c6,-3 10,-13 10,-22c0,-14 -3,-14 -20,2c-11,10 -20,24 -20,32c0,7 -4,13 -10,13c-16,0 -12,-22 13,-57c23,-35 36,-40 54,-22c9,9 19,6 42,-10c17,-13 31,-25 31,-29c0,-6 50,-72 123,-162c47,-58 57,-75 52,-89c-2,-9 -1,-21 3,-27c9,-13 54,-44 64,-44c13,0 19,40 8,60c-11,20 -10,21 9,10c14,-7 21,-21 21,-41c0,-18 4,-28 10,-24c5,3 10,1 10,-6c0,-7 7,-20 16,-30c17,-19 10,-44 -8,-33c-7,4 -8,2 -4,-5c4,-6 12,-8 18,-5c10,7 28,-13 28,-31c-1,-5 -5,-2 -11,7c-5,9 -16,15 -23,12c-7,-3 -21,2 -30,11c-9,9 -16,12 -16,6c0,-10 -36,4 -50,20c-3,3 -13,8 -23,12c-10,4 -16,10 -13,15c2,4 -4,8 -15,8c-24,0 -24,-1 3,-26c12,-11 19,-22 16,-25c-8,-8 -234,212 -259,252c-13,20 -25,31 -27,24c-13,-38 254,-302 378,-372c13,-8 30,-20 38,-26c7,-7 22,-13 33,-13c10,0 19,-4 19,-10c0,-5 5,-10 11,-10c22,0 43,-33 40,-63c-4,-38 -36,-114 -60,-141c-57,-63 -88,-103 -94,-118c-9,-25 2,-22 36,10c33,30 33,29 -13,-78c-71,-166 -80,-189 -96,-251c-16,-64 -45,-128 -83,-184c-21,-31 -28,-65 -12,-65c32,0 68,24 83,58c21,45 103,175 94,147c-4,-11 -10,-32 -13,-47c-3,-15 -8,-26 -12,-24c-3,2 -6,-15 -5,-37c2,-73 2,-73 37,-40c65,62 297,197 297,174c0,-5 6,-11 14,-14c11,-4 14,1 13,21c-1,17 3,26 11,25c6,-2 12,2 12,7c0,6 18,10 41,10c24,0 38,-4 34,-10c-4,-6 3,-8 17,-6c13,2 22,8 21,13c-1,5 5,10 13,10c9,0 13,-6 9,-15c-4,-12 2,-14 36,-9c35,5 40,3 35,-11c-5,-13 -2,-12 9,2c8,11 18,17 21,13c4,-4 14,-1 22,5c11,10 18,7 34,-12c11,-14 17,-19 13,-12c-3,6 -2,12 3,12c12,0 26,-47 23,-73c-2,-15 3,-17 26,-12l28,7l-25,-21c-18,-14 -27,-16 -32,-8c-5,8 -8,9 -8,1c0,-6 7,-17 15,-24c8,-7 15,-9 15,-5c0,4 7,2 16,-6c10,-8 18,-9 22,-2c4,5 17,9 29,8c13,-1 19,3 16,8c-4,6 1,8 11,4c10,-4 15,-3 11,3c-7,11 18,40 33,40c6,0 12,3 14,8c3,6 113,87 144,105c14,8 12,-21 -3,-48c-6,-12 -23,-27 -37,-35c-14,-7 -26,-17 -26,-21c0,-14 54,-1 67,17c7,10 13,12 13,6c0,-22 15,-12 31,21c18,37 46,45 89,25c38,-16 38,-24 -2,-56c-51,-44 -118,-115 -124,-134c-3,-9 -11,-15 -19,-12c-8,3 -11,13 -8,21c4,11 2,14 -5,9c-16,-9 -8,-119 10,-145c8,-12 18,-18 21,-14c4,3 7,-1 7,-10c0,-19 20,-21 70,-7c48,14 89,-2 119,-45c27,-40 45,-44 61,-14c9,16 14,18 26,8c11,-9 19,-8 39,5c41,27 51,59 36,114c-10,41 -9,53 5,87c9,22 20,53 23,69c4,16 11,31 16,32c6,2 30,-14 54,-36c44,-38 44,-40 31,-66c-14,-25 -13,-28 10,-43c13,-9 44,-33 67,-53c24,-20 51,-41 61,-47c16,-9 16,-12 0,-56c-17,-44 -17,-46 2,-65c21,-21 44,-17 94,15c24,16 66,9 81,-14c12,-20 27,-12 19,12c-4,12 -10,40 -13,62c-5,32 -12,42 -36,53c-50,23 -155,96 -155,108c0,7 21,19 46,28c25,8 68,29 95,46l49,30l7,-31c3,-17 13,-33 22,-37c9,-3 19,-10 23,-16c4,-6 8,-1 8,12c0,12 2,22 5,22c19,0 66,-31 98,-64c43,-46 47,-40 12,19c-13,23 -21,45 -18,49c6,6 100,-42 161,-82c16,-10 23,-12 18,-4c-5,8 -34,30 -65,49c-31,20 -75,52 -98,71c-44,35 -90,99 -79,109c3,3 25,-7 48,-23c24,-16 48,-31 53,-34c68,-34 132,-81 185,-135l65,-66l-22,-17c-28,-21 -40,-74 -21,-89c7,-6 26,-13 41,-15c23,-5 30,-1 38,19c8,21 14,24 35,19c14,-4 40,-20 57,-36c69,-64 33,-2 -62,110c-34,39 -45,56 -27,42c61,-47 62,-18 1,59c-25,32 -45,59 -45,62c0,3 9,7 21,10c16,4 24,-2 36,-29c16,-32 18,-33 35,-17c17,16 20,15 51,-15c18,-18 36,-30 39,-27c3,3 16,1 29,-4c30,-11 39,-12 39,-6c1,3 8,24 16,47c15,42 14,43 -11,61c-14,10 -25,25 -25,33c0,8 -4,14 -10,14c-5,0 -10,-6 -10,-14c0,-8 -5,-18 -11,-21c-14,-9 -51,26 -44,42c2,8 1,11 -4,8c-5,-3 -13,4 -16,16c-4,13 -2,25 5,29c7,4 9,13 6,19c-4,6 -3,11 3,11c5,0 15,-8 21,-17c10,-16 11,-16 7,4c-3,15 1,23 14,26c11,3 19,1 19,-5c0,-5 8,-17 17,-26c16,-16 16,-15 10,8c-13,51 22,-11 40,-71c13,-45 22,-58 40,-62c13,-2 23,0 23,4c0,5 -4,9 -10,9c-16,0 -33,40 -21,54c7,8 5,15 -8,23c-11,7 -20,28 -24,54c-7,51 -1,65 20,47c9,-7 19,-12 22,-10c3,2 12,-16 21,-39c8,-24 30,-58 48,-77c31,-30 35,-32 46,-16c7,9 18,14 24,10c17,-10 23,10 12,40c-8,19 -8,30 0,38c8,8 9,6 5,-6c-5,-12 -2,-16 12,-14c10,2 18,7 18,12c1,16 30,54 42,54c6,0 10,-8 9,-17c-4,-22 45,-77 55,-62c4,6 11,9 16,6c13,-8 40,11 28,20c-11,9 -18,65 -7,60c81,-42 116,-44 66,-5c-42,33 -115,110 -110,116c3,2 45,-31 93,-75c48,-43 106,-93 128,-110c45,-34 184,-101 222,-106c13,-2 34,-16 47,-32l23,-28l6,29c4,16 13,37 21,47c14,18 18,18 93,2c120,-26 259,-18 340,19c34,15 70,38 80,49l18,21l-25,-17c-27,-19 -72,-41 -107,-51c-17,-5 -23,-3 -23,8c0,23 -17,28 -35,10c-33,-33 -184,8 -221,61c-17,24 -18,62 -2,67c7,3 9,12 5,22c-6,14 -14,17 -38,12c-63,-12 -149,45 -215,143c-44,66 -49,85 -17,60c10,-7 1,5 -19,26c-20,22 -38,51 -40,65l-3,25l-735,5c-425,3 -722,9 -705,13c17,5 72,20 123,33c103,26 225,74 273,107c29,20 59,79 59,117c0,8 -21,60 -46,115c-25,55 -69,154 -98,220c-77,174 -214,474 -236,515c-10,19 -63,134 -118,256c-86,190 -246,520 -258,533c-2,2 -6,2 -9,-1c-3,-2 9,-45 27,-94l32,-90l-78,-164c-358,-752 -359,-753 -320,-809c29,-40 164,-85 339,-112c44,-6 87,-16 95,-20c8,-5 -239,-9 -550,-9c-311,0 -582,-3 -602,-6c-73,-12 -37,12 77,50c63,21 150,56 194,78c99,47 120,75 244,328c48,96 108,216 134,266c26,50 54,107 62,125c8,19 41,90 73,159c33,69 66,139 73,155c7,17 53,113 101,215c47,102 128,275 179,385c119,258 245,509 252,502c2,-3 -7,-46 -21,-96c-14,-49 -26,-105 -26,-123c0,-19 24,-90 56,-163c98,-224 376,-850 507,-1140c49,-110 102,-229 117,-265c15,-36 74,-168 132,-295c58,-126 138,-304 179,-394c66,-147 79,-168 120,-201c74,-58 290,-163 305,-147c3,3 -4,18 -15,34c-37,50 -161,331 -154,349c4,12 3,15 -5,10c-14,-8 -16,13 -3,33c5,8 14,10 21,6c8,-5 11,-3 8,6c-7,20 50,67 78,64c14,-1 27,2 30,6c3,5 14,9 24,9c14,0 18,5 13,17c-4,11 -3,14 5,9c7,-4 12,-1 12,8c0,9 6,16 13,17c6,1 19,2 27,3c8,2 24,3 36,4c12,1 26,14 33,30c7,15 10,24 6,20c-7,-7 -33,17 -51,48c-14,25 -50,33 -41,9c4,-9 3,-14 -3,-10c-6,3 -10,1 -10,-4c0,-6 -5,-11 -11,-11c-5,0 -8,4 -4,9c3,5 -3,16 -13,23c-28,20 -52,74 -39,87c16,16 3,23 -26,12c-18,-7 -28,-7 -33,0c-3,6 -14,1 -25,-12c-10,-12 -19,-17 -19,-10c0,7 -5,9 -11,5c-7,-4 -10,-2 -7,6c2,7 23,27 46,43l43,31l25,-32c14,-18 32,-32 40,-32c8,0 14,-5 14,-11c0,-5 5,-7 12,-3c7,5 2,15 -17,32c-29,24 -42,52 -24,52c5,0 7,18 5,39c-3,32 -1,38 11,34c8,-3 13,-14 10,-24c-3,-11 -1,-22 4,-25c5,-3 9,2 9,10c0,9 5,16 10,16c6,0 10,-5 10,-12c0,-6 3,-8 7,-4c4,4 -5,18 -19,31c-15,14 -31,32 -36,41c-13,24 -46,10 -39,-16c7,-26 4,-25 -29,5c-21,20 -25,28 -16,37c7,7 12,9 12,4c0,-4 7,-1 15,8c8,8 15,19 15,25c0,6 6,11 14,11c7,0 25,9 40,21c15,11 32,22 39,24c41,10 57,19 54,29c-3,6 -10,10 -16,8c-7,-1 -10,2 -7,7c3,5 -2,19 -12,32c-26,33 -32,55 -20,67c6,6 1,8 -16,5c-14,-3 -26,-10 -26,-16c0,-6 -3,-7 -7,-4c-4,4 -19,-5 -35,-20c-15,-15 -28,-23 -28,-19c0,5 -6,4 -12,-1c-7,-6 -20,-10 -28,-10c-8,0 -24,-3 -35,-6c-17,-6 -23,0 -38,34c-16,36 -16,45 -3,95c8,31 21,63 29,72c8,10 18,38 21,65c4,26 11,45 16,42c5,-3 15,8 23,25c14,26 14,30 1,30c-23,0 -64,-31 -64,-47c0,-13 -3,-13 -16,-2c-12,10 -17,10 -23,0c-6,-10 -10,-8 -15,5c-3,9 -9,14 -13,11c-3,-4 -12,-2 -20,4c-7,6 -13,8 -13,3c0,-4 -6,1 -14,12c-16,22 -11,70 11,95c8,9 13,22 11,29c-3,15 37,40 65,40c9,0 17,5 17,10c0,6 6,10 13,10c8,0 22,10 33,22c11,13 13,18 4,12c-32,-19 -105,-33 -118,-21c-10,8 -16,7 -22,-2c-5,-9 -10,-10 -14,-2c-4,6 -2,11 4,11c6,0 8,5 5,10c-3,6 -15,10 -26,10c-13,0 -19,7 -19,23v22l-19,-24l-18,-24l-7,33c-6,32 -7,33 -26,15c-24,-22 -27,-9 -4,16c15,16 14,17 -5,12c-24,-6 -29,12 -5,21c27,10 72,7 77,-6c4,-9 12,-5 26,12c18,22 18,26 5,36c-12,10 -11,13 8,19c13,4 28,7 34,6c6,-1 15,8 20,18c11,24 132,105 191,127c24,9 43,23 43,30c0,7 -6,11 -14,8c-7,-3 -21,2 -30,11c-9,9 -16,13 -16,8c0,-9 -20,18 -20,28c0,10 37,49 47,49c5,0 16,-11 23,-25c20,-38 48,-42 79,-11c23,23 26,35 27,99c1,39 2,117 3,172c3,132 4,125 -20,125c-20,0 -21,4 -16,45c4,43 4,45 -13,30c-9,-8 -28,-43 -41,-75c-29,-74 -78,-130 -143,-164c-61,-32 -76,-33 -76,-3c0,50 40,107 109,156c39,28 39,36 -1,36c-26,0 -34,4 -36,22c-2,14 -8,20 -18,16c-10,-4 -12,0 -8,13c6,16 2,15 -20,-5c-18,-17 -30,-21 -37,-14c-7,7 1,26 26,62c37,55 42,66 25,56c-16,-10 -12,0 10,25c11,12 17,27 14,32c-6,10 -54,-49 -54,-67c0,-19 -128,-74 -172,-75c-21,0 -22,4 -8,31c11,19 10,19 -22,-1c-45,-27 -78,-26 -79,3c0,12 -3,16 -6,10c-2,-7 -15,-13 -27,-13c-12,0 -28,6 -35,13c-10,10 -11,8 -5,-7c6,-16 4,-18 -11,-13c-9,4 -23,3 -30,-3c-13,-11 -45,-4 -45,10c0,13 29,32 39,25c6,-3 8,0 5,8c-3,8 2,17 10,20c20,8 156,111 151,115c-3,3 -45,-20 -147,-81c-16,-9 -34,-15 -39,-11c-6,3 -19,-3 -30,-15c-11,-11 -34,-28 -52,-37c-18,-9 -51,-32 -74,-51c-27,-22 -50,-33 -65,-31c-21,3 -17,10 45,73c39,41 65,76 62,84c-3,7 0,20 6,28c7,7 9,16 6,20c-4,3 -3,11 2,17c5,7 2,18 -9,29c-17,18 -19,17 -45,-18c-33,-42 -43,-40 -20,5c9,17 14,38 11,46c-3,8 1,14 10,14c12,0 14,7 9,30c-4,20 -1,37 9,52c9,12 16,28 16,34c0,19 -50,27 -69,11c-9,-7 -40,-23 -68,-35c-62,-25 -68,-14 -20,37c17,18 25,30 17,26c-19,-10 -158,-113 -188,-139c-12,-11 -29,-21 -37,-22c-20,-3 -19,25 0,32c27,11 16,21 -20,19c-19,-1 -35,2 -35,7c0,4 6,8 13,8c16,0 50,34 41,42c-11,12 -40,-5 -70,-43c-27,-33 -34,-36 -44,-24c-7,8 -19,15 -26,15c-17,0 -17,5 -4,31c8,15 7,19 -5,19c-10,0 4,24 39,67c30,37 53,69 51,72c-2,2 -11,-4 -20,-13c-36,-36 -33,-13 4,37c62,81 20,74 -72,-12c-38,-35 -48,-41 -43,-24c7,21 6,22 -20,8c-30,-15 -54,-10 -54,12c0,8 -5,11 -11,7c-8,-4 -9,3 -4,26c7,32 35,61 121,127c24,19 44,38 44,44c0,17 -58,-23 -117,-81c-31,-30 -60,-54 -64,-53c-5,2 -6,-4 -3,-11c5,-14 -69,-96 -87,-96c-16,0 -9,19 12,34c15,10 19,20 14,35l-6,21l-28,-20c-16,-10 -31,-17 -34,-13c-4,3 -9,-2 -13,-11c-11,-28 3,-29 33,-2c27,26 43,33 43,19c0,-4 -21,-26 -46,-50c-31,-28 -53,-41 -68,-39c-28,5 -56,-11 -56,-32c0,-13 -2,-14 -9,-4c-6,10 -19,6 -57,-19c-27,-18 -50,-36 -52,-41c-2,-4 -10,-4 -18,-1c-7,3 -16,-2 -20,-10c-3,-9 -12,-18 -20,-21c-17,-7 -13,2 23,50c24,33 30,54 13,54c-5,0 -10,-5 -10,-10c0,-6 -9,-20 -19,-32c-23,-24 -51,-18 -51,11c0,11 -4,23 -10,26c-5,3 -10,13 -10,21c0,8 -11,27 -25,42l-26,27l6,-40c3,-22 7,-60 9,-85c3,-25 8,-55 12,-67c16,-57 -39,-5 -73,67c-36,76 -36,85 -7,120c24,28 28,42 29,105l2,72l-40,27c-23,14 -49,26 -58,26c-10,0 -24,18 -37,48c-11,26 -21,44 -21,41zM2400,4326c0,-9 -64,-82 -78,-90c-13,-7 -15,-6 -5,4c6,7 9,19 6,26c-3,8 5,17 19,23c13,5 30,16 37,25c13,15 21,20 21,12zM3150,3946c0,-3 -4,-8 -10,-11c-5,-3 -10,-1 -10,4c0,6 5,11 10,11c6,0 10,-2 10,-4zM3725,3890c-3,-5 -11,-10 -16,-10c-6,0 -7,5 -4,10c3,6 11,10 16,10c6,0 7,-4 4,-10zM3712,3818c-7,-7 -12,-8 -12,-2c0,6 3,14 7,17c3,4 9,5 12,2c2,-3 -1,-11 -7,-17zM3697,3778c-3,-8 -6,-5 -6,6c-1,11 2,17 5,13c3,-3 4,-12 1,-19zM4084,3743c-9,-34 -8,-95 1,-149c9,-52 -11,-154 -31,-154c-20,0 -18,73 2,127c21,53 12,65 -20,30c-14,-15 -32,-27 -39,-27c-18,0 -29,27 -22,51c9,28 73,132 87,141c23,14 29,9 22,-19zM1685,3421c3,-5 1,-12 -5,-16c-5,-3 -10,-1 -10,5c0,6 -5,8 -12,4c-7,-4 -8,-3 -4,4c9,14 23,15 31,3zM1725,3420c3,-5 1,-10 -4,-10c-6,0 -11,5 -11,10c0,6 2,10 4,10c3,0 8,-4 11,-10zM1726,3376c17,-13 17,-14 1,-12c-19,2 -47,26 -31,26c6,0 19,-6 30,-14zM1704,3330c7,-23 6,-22 -13,5c-24,34 -28,53 -7,33c7,-8 17,-25 20,-38zM1690,3170c0,-5 -7,-10 -15,-10c-8,0 -15,5 -15,10c0,6 7,10 15,10c8,0 15,-4 15,-10zM1574,3051c10,-17 15,-35 12,-38c-9,-9 -42,27 -51,56c-10,34 15,23 39,-18zM1501,2998c8,-15 8,-18 0,-14c-6,4 -16,16 -22,28c-8,15 -8,18 0,14c6,-4 16,-16 22,-28zM3826,2404c-4,-9 -9,-15 -11,-12c-3,3 -3,13 1,22c4,9 9,15 11,12c3,-3 3,-13 -1,-22zM864,2081c3,-4 3,-11 0,-14c-8,-8 -34,3 -34,14c0,11 27,12 34,0zM940,2051c0,-5 -5,-22 -11,-38c-8,-22 -12,-24 -19,-13c-17,27 -12,60 10,60c11,0 20,-4 20,-9zM3920,2041c0,-5 -6,-11 -13,-14c-8,-3 -14,1 -14,9c0,8 6,14 14,14c7,0 13,-4 13,-9zM857,1773c-11,-25 -22,-29 -32,-13c-3,6 -2,10 4,10c6,0 8,7 5,15c-4,8 -10,12 -15,9c-11,-6 -11,-1 -3,20c5,14 8,14 29,-2c19,-14 21,-21 12,-39zM3874,1821c3,-4 -6,-6 -19,-3c-14,2 -25,6 -25,8c0,8 39,4 44,-5zM796,1783c-7,-7 -26,7 -26,19c0,6 6,6 15,-2c9,-7 13,-15 11,-17zM908,1755c-3,-3 -9,2 -12,12c-6,14 -5,15 5,6c7,-7 10,-15 7,-18zM906,1735c25,-19 14,-19 -22,0c-16,8 -22,15 -13,15c8,0 24,-7 35,-15zM966,1634c-16,-15 -36,-19 -36,-6c0,13 7,18 30,19c18,2 18,0 6,-13zM1004,1604c9,-22 8,-24 -9,-24c-8,0 -15,9 -15,20c0,24 15,27 24,4zM954,1584c3,-8 2,-12 -4,-9c-6,3 -10,10 -10,16c0,14 7,11 14,-7zM811,1573c13,-16 12,-17 -3,-4c-10,7 -18,15 -18,17c0,8 8,3 21,-13zM858,1535c-3,-3 -9,2 -12,12c-6,14 -5,15 5,6c7,-7 10,-15 7,-18zM908,1521c31,-27 27,-33 -8,-13c-16,9 -30,20 -30,25c0,12 14,7 38,-12zM2195,1001c-3,-5 -1,-12 5,-16c5,-3 10,-1 10,4c0,6 8,11 18,11c13,0 14,-2 3,-9c-11,-7 -10,-13 3,-32c27,-43 47,-112 40,-143c-6,-28 -7,-29 -20,-11c-13,18 -14,17 -14,-7c0,-14 -7,-28 -15,-32c-9,-3 -15,0 -15,9c0,8 -6,15 -13,15c-7,0 -18,5 -25,12c-6,6 -22,13 -34,15c-12,2 -24,6 -26,8c-3,3 8,35 24,72c15,38 27,78 25,91c-2,17 3,22 19,22c12,0 19,-4 15,-9zM1780,980c0,-5 -2,-10 -4,-10c-3,0 -8,5 -11,10c-3,6 -1,10 4,10c6,0 11,-4 11,-10zM1750,941c-9,-17 -13,-19 -24,-9c-8,7 -12,17 -9,22c3,4 9,3 13,-4c5,-8 9,-7 14,6c3,9 9,14 12,11c3,-3 1,-15 -6,-26zM1790,941c0,-12 -20,-25 -27,-18c-7,7 6,27 18,27c5,0 9,-4 9,-9zM3647,905c0,-8 -4,-15 -9,-15c-10,0 -11,14 -1,23c9,10 10,9 10,-8zM1720,890c0,-5 -5,-10 -11,-10c-5,0 -7,5 -4,10c3,6 8,10 11,10c2,0 4,-4 4,-10zM1800,865c-13,-14 -26,-22 -29,-19c-3,3 5,14 18,25c33,27 39,24 11,-6zM3988,855c-3,-3 -9,2 -12,12c-6,14 -5,15 5,6c7,-7 10,-15 7,-18zM1693,855c-3,-9 -8,-14 -10,-11c-3,3 -2,9 2,15c9,16 15,13 8,-4z"></path><path d="M3567,4619c4,-13 8,-18 11,-10c2,7 -1,18 -6,23c-8,8 -9,4 -5,-13z"></path><path d="M3379,4563c-13,-17 -13,-17 6,-3c11,8 22,16 24,17c2,2 0,3 -6,3c-6,0 -17,-8 -24,-17z"></path><path d="M3315,4501c-8,-14 16,-61 32,-61c17,0 16,4 -2,40c-17,32 -21,35 -30,21z"></path><path d="M2690,4489c0,-5 5,-7 10,-4c6,3 10,8 10,11c0,2 -4,4 -10,4c-5,0 -10,-5 -10,-11z"></path><path d="M2550,4480c0,-5 5,-10 11,-10c5,0 7,5 4,10c-3,6 -8,10 -11,10c-2,0 -4,-4 -4,-10z"></path><path d="M4270,4425c-17,-25 -28,-50 -25,-55c4,-6 2,-9 -2,-8c-5,2 -31,-24 -58,-57c-27,-33 -51,-62 -54,-65c-3,-3 -16,-17 -29,-31l-22,-26l30,5c23,3 44,21 88,76c60,74 122,167 122,181c0,5 -11,-6 -25,-25c-30,-41 -33,-34 -4,14c30,51 16,45 -21,-9z"></path><path d="M3381,4264c-15,-11 -19,-20 -13,-26c13,-13 28,-4 35,22c6,24 7,24 -22,4z"></path><path d="M1935,4260c3,-5 8,-10 11,-10c2,0 4,5 4,10c0,6 -5,10 -11,10c-5,0 -7,-4 -4,-10z"></path><path d="M1824,4185c-7,-17 3,-35 18,-35c7,0 6,5 -2,15c-6,8 -9,19 -5,25c3,5 4,10 0,10c-3,0 -8,-7 -11,-15z"></path><path d="M1860,3927c0,-14 30,-47 43,-47c3,0 4,7 1,15c-4,8 -10,12 -15,9c-5,-3 -9,2 -9,10c0,8 -4,18 -10,21c-5,3 -10,0 -10,-8z"></path><path d="M1534,3487c3,-10 6,-33 7,-50l1,-32l11,33c9,28 7,36 -8,50c-17,16 -17,16 -11,-1z"></path><path d="M2523,3220c12,-8 16,-18 11,-33c-5,-18 -4,-20 7,-9c15,14 3,43 -22,49c-8,3 -6,-1 4,-7z"></path><path d="M3999,3069c-15,-15 -13,-16 30,-15c35,1 47,5 49,18c3,14 -3,17 -30,16c-18,-1 -40,-9 -49,-19z"></path><path d="M990,2714c0,-15 26,-19 34,-5c3,5 -3,11 -14,14c-13,3 -20,0 -20,-9z"></path><path d="M912,2510c0,-14 2,-19 5,-12c2,6 2,18 0,25c-3,6 -5,1 -5,-13z"></path><path d="M652,2380c-15,-24 -16,-40 -2,-40c6,0 10,9 10,21c0,12 5,19 12,17c13,-5 16,-14 43,-128l15,-65l-4,67c-3,63 -30,138 -52,145c-5,2 -15,-6 -22,-17z"></path><path d="M852,2230c0,-19 2,-27 5,-17c2,9 2,25 0,35c-3,9 -5,1 -5,-18z"></path><path d="M4124,2146c-9,-24 12,-44 28,-28c10,10 8,16 -5,29c-15,15 -17,15 -23,-1z"></path><path d="M420,2130c6,-11 13,-20 16,-20c2,0 0,9 -6,20c-6,11 -13,20 -16,20c-2,0 0,-9 6,-20z"></path><path d="M1840,2060c0,-5 5,-10 10,-10c6,0 10,5 10,10c0,6 -4,10 -10,10c-5,0 -10,-4 -10,-10z"></path><path d="M1890,2054c0,-8 5,-12 10,-9c6,4 8,11 5,16c-9,14 -15,11 -15,-7z"></path><path d="M820,1990c0,-5 5,-10 11,-10c5,0 7,5 4,10c-3,6 -8,10 -11,10c-2,0 -4,-4 -4,-10z"></path><path d="M470,1911c0,-6 4,-13 10,-16c6,-3 7,1 4,9c-7,18 -14,21 -14,7z"></path><path d="M860,1636c0,-2 7,-7 16,-10c8,-3 12,-2 9,4c-6,10 -25,14 -25,6z"></path><path d="M3930,1538c0,-9 5,-20 11,-23c17,-11 20,0 4,21c-13,17 -14,17 -15,2z"></path><path d="M3100,1446c0,-9 7,-16 16,-16c17,0 14,22 -4,28c-7,2 -12,-3 -12,-12z"></path><path d="M3710,770c0,-5 5,-10 10,-10c6,0 10,5 10,10c0,6 -4,10 -10,10c-5,0 -10,-4 -10,-10z"></path><path d="M1420,760c0,-6 7,-10 15,-10c8,0 15,2 15,4c0,2 -7,6 -15,10c-8,3 -15,1 -15,-4z"></path><path d="M1782,750c0,-14 2,-19 5,-12c2,6 2,18 0,25c-3,6 -5,1 -5,-13z"></path><path d="M1205,750c-8,-13 -1,-24 14,-19c6,3 7,10 2,18c-6,10 -10,10 -16,1z"></path><path d="M1707,714c-4,-4 -7,-17 -7,-28c1,-19 1,-20 11,-3c11,19 8,43 -4,31z"></path><path d="M3442,293c-8,-3 -1,-15 20,-34c47,-41 62,-39 32,6c-17,26 -33,34 -52,28z"></path><path d="M2230,44c0,-8 5,-12 10,-9c6,3 10,10 10,16c0,5 -4,9 -10,9c-5,0 -10,-7 -10,-16z"></path></g></g></g></svg>