<?xml version="1.0" standalone="no"?>
<!DOCTYPE svg PUBLIC "-//W3C//DTD SVG 20010904//EN"
 "http://www.w3.org/TR/2001/REC-SVG-20010904/DTD/svg10.dtd">
<svg version="1.0" xmlns="http://www.w3.org/2000/svg"
 width="504.000000pt" height="495.000000pt" viewBox="0 0 504.000000 495.000000"
 preserveAspectRatio="xMidYMid meet">

<g transform="translate(0.000000,495.000000) scale(0.100000,-0.100000)"
fill="#000000" stroke="none">
<path d="M3518 4740 c-18 -16 -28 -30 -22 -30 5 0 23 14 39 30 37 39 25 39
-17 0z"/>
<path d="M1901 4739 c-1 -4 8 -37 19 -73 16 -49 18 -71 10 -85 -15 -28 -12
-80 6 -135 14 -40 14 -50 3 -56 -10 -7 -8 -13 12 -29 14 -11 34 -38 44 -60 16
-37 17 -47 5 -98 -11 -53 -11 -58 8 -73 15 -13 17 -21 10 -34 -5 -10 -7 -27
-4 -39 4 -18 0 -16 -25 11 -33 37 -47 26 -29 -23 7 -19 7 -32 1 -38 -7 -7 -6
-17 1 -31 8 -15 8 -21 -1 -24 -6 -2 -11 -12 -11 -22 0 -9 -7 -23 -15 -30 -9
-7 -13 -21 -10 -30 4 -14 1 -16 -21 -12 -24 4 -25 3 -15 -16 6 -12 16 -24 21
-27 15 -9 12 -19 -10 -45 -11 -13 -20 -27 -20 -32 0 -4 -5 -8 -11 -8 -7 0 -9
11 -6 30 4 16 2 32 -3 35 -6 4 -10 -10 -11 -32 -1 -42 -8 -68 -26 -98 -11 -17
-14 -18 -23 -5 -8 12 -10 9 -10 -14 0 -21 -4 -27 -15 -22 -11 4 -15 -1 -15
-19 0 -18 -4 -23 -15 -19 -8 4 -13 10 -10 14 7 11 -32 43 -44 35 -6 -3 -11
-13 -11 -21 0 -8 -4 -14 -10 -14 -20 0 -10 -17 18 -30 l27 -12 -32 -16 c-18
-9 -33 -19 -33 -24 0 -4 -7 -8 -16 -8 -20 0 -42 -22 -37 -37 2 -6 -1 -14 -6
-18 -6 -3 -11 -19 -11 -35 0 -16 -6 -35 -13 -42 -15 -13 -11 -48 5 -48 5 0 6
-5 3 -10 -4 -6 -10 -8 -15 -5 -5 3 -11 1 -15 -5 -6 -10 7 -14 33 -11 6 1 12
-3 12 -9 0 -5 -5 -9 -11 -7 -6 1 -14 -4 -17 -12 -3 -9 0 -11 8 -6 10 6 11 3 6
-11 -5 -10 -11 -27 -13 -36 -3 -10 -9 -15 -14 -12 -5 3 -6 -1 -3 -9 3 -8 1
-18 -5 -21 -5 -4 -13 4 -17 16 -7 24 -39 58 -80 85 -16 10 -30 35 -40 70 -10
33 -27 64 -44 79 -18 17 -39 56 -59 113 -18 49 -41 97 -51 106 -19 18 -20 17
-20 -7 0 -14 6 -43 13 -64 8 -22 17 -70 20 -109 6 -63 5 -67 -8 -45 l-13 25
-13 -27 c-9 -21 -9 -33 1 -57 7 -17 8 -35 4 -43 -5 -7 -14 -28 -20 -46 -11
-31 -9 -36 34 -95 25 -34 54 -68 64 -75 10 -7 18 -18 18 -25 0 -7 22 -33 50
-58 41 -37 48 -50 43 -70 -3 -13 -7 -37 -8 -54 -1 -16 -3 -38 -3 -47 -2 -24
-17 -23 -53 3 -16 11 -36 18 -44 15 -10 -3 -12 0 -9 12 3 9 -3 5 -13 -11 -10
-15 -30 -33 -45 -40 -22 -9 -28 -19 -28 -42 0 -35 -15 -55 -41 -55 -36 0 -35
-22 8 -118 19 -42 13 -48 -21 -21 -26 20 -28 20 -40 4 -7 -10 -18 -15 -23 -12
-6 4 -10 -1 -9 -11 0 -9 -6 -17 -14 -17 -17 0 -30 -14 -30 -32 0 -9 7 -10 26
-3 34 13 34 13 34 -9 0 -11 4 -22 9 -25 12 -8 1 -58 -18 -80 -9 -10 -25 -22
-36 -26 -11 -4 -20 -16 -20 -26 0 -11 -6 -18 -12 -16 -16 3 -17 -15 -1 -20 7
-3 9 -12 5 -22 -4 -9 -11 -14 -17 -11 -5 3 -10 -1 -10 -9 0 -9 7 -16 15 -16 8
0 15 -5 15 -11 0 -5 -5 -7 -12 -3 -6 4 -8 3 -5 -3 4 -6 9 -36 11 -67 3 -42 1
-54 -8 -48 -16 14 -66 21 -72 11 -3 -5 -12 -9 -21 -9 -9 0 -22 -8 -29 -17 -18
-24 -48 -6 -52 32 l-4 27 -16 -23 c-9 -13 -16 -27 -14 -31 1 -5 -2 -8 -8 -8
-16 0 -12 -17 16 -76 23 -49 24 -58 13 -91 -15 -46 -43 -77 -63 -70 -10 4 -13
1 -9 -9 11 -29 -36 -14 -72 24 -40 41 -155 209 -155 227 0 15 21 35 37 35 12
0 32 -36 62 -113 6 -15 15 -27 20 -27 5 0 -4 34 -21 76 -16 42 -27 79 -24 82
3 3 17 0 31 -6 31 -14 32 -6 8 63 -15 45 -17 47 -26 28 -5 -12 -29 -31 -54
-43 -24 -11 -41 -25 -38 -30 12 -19 -15 -80 -36 -80 -20 0 -26 -15 -9 -25 6
-3 10 -13 10 -22 0 -14 -3 -14 -20 2 -11 10 -20 24 -20 32 0 7 -4 13 -10 13
-16 0 -12 -22 13 -57 23 -35 36 -40 54 -22 9 9 19 6 42 -10 17 -13 31 -25 31
-29 0 -6 50 -72 123 -162 47 -58 57 -75 52 -89 -2 -9 -1 -21 3 -27 9 -13 54
-44 64 -44 13 0 19 40 8 60 -11 20 -10 21 9 10 14 -7 21 -21 21 -41 0 -18 4
-28 10 -24 5 3 10 1 10 -6 0 -7 7 -20 16 -30 17 -19 10 -44 -8 -33 -7 4 -8 2
-4 -5 4 -6 12 -8 18 -5 10 7 28 -13 28 -31 -1 -5 -5 -2 -11 7 -5 9 -16 15 -23
12 -7 -3 -21 2 -30 11 -9 9 -16 12 -16 6 0 -10 -36 4 -50 20 -3 3 -13 8 -23
12 -10 4 -16 10 -13 15 2 4 -4 8 -15 8 -24 0 -24 -1 3 -26 12 -11 19 -22 16
-25 -8 -8 -234 212 -259 252 -13 20 -25 31 -27 24 -13 -38 254 -302 378 -372
13 -8 30 -20 38 -26 7 -7 22 -13 33 -13 10 0 19 -4 19 -10 0 -5 5 -10 11 -10
22 0 43 -33 40 -63 -4 -38 -36 -114 -60 -141 -57 -63 -88 -103 -94 -118 -9
-25 2 -22 36 10 33 30 33 29 -13 -78 -71 -166 -80 -189 -96 -251 -16 -64 -45
-128 -83 -184 -21 -31 -28 -65 -12 -65 32 0 68 24 83 58 21 45 103 175 94 147
-4 -11 -10 -32 -13 -47 -3 -15 -8 -26 -12 -24 -3 2 -6 -15 -5 -37 2 -73 2 -73
37 -40 65 62 297 197 297 174 0 -5 6 -11 14 -14 11 -4 14 1 13 21 -1 17 3 26
11 25 6 -2 12 2 12 7 0 6 18 10 41 10 24 0 38 -4 34 -10 -4 -6 3 -8 17 -6 13
2 22 8 21 13 -1 5 5 10 13 10 9 0 13 -6 9 -15 -4 -12 2 -14 36 -9 35 5 40 3
35 -11 -5 -13 -2 -12 9 2 8 11 18 17 21 13 4 -4 14 -1 22 5 11 10 18 7 34 -12
11 -14 17 -19 13 -12 -3 6 -2 12 3 12 12 0 26 -47 23 -73 -2 -15 3 -17 26 -12
l28 7 -25 -21 c-18 -14 -27 -16 -32 -8 -5 8 -8 9 -8 1 0 -6 7 -17 15 -24 8 -7
15 -9 15 -5 0 4 7 2 16 -6 10 -8 18 -9 22 -2 4 5 17 9 29 8 13 -1 19 3 16 8
-4 6 1 8 11 4 10 -4 15 -3 11 3 -7 11 18 40 33 40 6 0 12 3 14 8 3 6 113 87
144 105 14 8 12 -21 -3 -48 -6 -12 -23 -27 -37 -35 -14 -7 -26 -17 -26 -21 0
-14 54 -1 67 17 7 10 13 12 13 6 0 -22 15 -12 31 21 18 37 46 45 89 25 38 -16
38 -24 -2 -56 -51 -44 -118 -115 -124 -134 -3 -9 -11 -15 -19 -12 -8 3 -11 13
-8 21 4 11 2 14 -5 9 -16 -9 -8 -119 10 -145 8 -12 18 -18 21 -14 4 3 7 -1 7
-10 0 -19 20 -21 70 -7 48 14 89 -2 119 -45 27 -40 45 -44 61 -14 9 16 14 18
26 8 11 -9 19 -8 39 5 41 27 51 59 36 114 -10 41 -9 53 5 87 9 22 20 53 23 69
4 16 11 31 16 32 6 2 30 -14 54 -36 44 -38 44 -40 31 -66 -14 -25 -13 -28 10
-43 13 -9 44 -33 67 -53 24 -20 51 -41 61 -47 16 -9 16 -12 0 -56 -17 -44 -17
-46 2 -65 21 -21 44 -17 94 15 24 16 66 9 81 -14 12 -20 27 -12 19 12 -4 12
-10 40 -13 62 -5 32 -12 42 -36 53 -50 23 -155 96 -155 108 0 7 21 19 46 28
25 8 68 29 95 46 l49 30 7 -31 c3 -17 13 -33 22 -37 9 -3 19 -10 23 -16 4 -6
8 -1 8 12 0 12 2 22 5 22 19 0 66 -31 98 -64 43 -46 47 -40 12 19 -13 23 -21
45 -18 49 6 6 100 -42 161 -82 16 -10 23 -12 18 -4 -5 8 -34 30 -65 49 -31 20
-75 52 -98 71 -44 35 -90 99 -79 109 3 3 25 -7 48 -23 24 -16 48 -31 53 -34
68 -34 132 -81 185 -135 l65 -66 -22 -17 c-28 -21 -40 -74 -21 -89 7 -6 26
-13 41 -15 23 -5 30 -1 38 19 8 21 14 24 35 19 14 -4 40 -20 57 -36 69 -64 33
-2 -62 110 -34 39 -45 56 -27 42 61 -47 62 -18 1 59 -25 32 -45 59 -45 62 0 3
9 7 21 10 16 4 24 -2 36 -29 16 -32 18 -33 35 -17 17 16 20 15 51 -15 18 -18
36 -30 39 -27 3 3 16 1 29 -4 30 -11 39 -12 39 -6 1 3 8 24 16 47 15 42 14 43
-11 61 -14 10 -25 25 -25 33 0 8 -4 14 -10 14 -5 0 -10 -6 -10 -14 0 -8 -5
-18 -11 -21 -14 -9 -51 26 -44 42 2 8 1 11 -4 8 -5 -3 -13 4 -16 16 -4 13 -2
25 5 29 7 4 9 13 6 19 -4 6 -3 11 3 11 5 0 15 -8 21 -17 10 -16 11 -16 7 4 -3
15 1 23 14 26 11 3 19 1 19 -5 0 -5 8 -17 17 -26 16 -16 16 -15 10 8 -13 51
22 -11 40 -71 13 -45 22 -58 40 -62 13 -2 23 0 23 4 0 5 -4 9 -10 9 -16 0 -33
40 -21 54 7 8 5 15 -8 23 -11 7 -20 28 -24 54 -7 51 -1 65 20 47 9 -7 19 -12
22 -10 3 2 12 -16 21 -39 8 -24 30 -58 48 -77 31 -30 35 -32 46 -16 7 9 18 14
24 10 17 -10 23 10 12 40 -8 19 -8 30 0 38 8 8 9 6 5 -6 -5 -12 -2 -16 12 -14
10 2 18 7 18 12 1 16 30 54 42 54 6 0 10 -8 9 -17 -4 -22 45 -77 55 -62 4 6
11 9 16 6 13 -8 40 11 28 20 -11 9 -18 65 -7 60 81 -42 116 -44 66 -5 -42 33
-115 110 -110 116 3 2 45 -31 93 -75 48 -43 106 -93 128 -110 45 -34 184 -101
222 -106 13 -2 34 -16 47 -32 l23 -28 6 29 c4 16 13 37 21 47 14 18 18 18 93
2 120 -26 259 -18 340 19 34 15 70 38 80 49 l18 21 -25 -17 c-27 -19 -72 -41
-107 -51 -17 -5 -23 -3 -23 8 0 23 -17 28 -35 10 -33 -33 -184 8 -221 61 -17
24 -18 62 -2 67 7 3 9 12 5 22 -6 14 -14 17 -38 12 -63 -12 -149 45 -215 143
-44 66 -49 85 -17 60 10 -7 1 5 -19 26 -20 22 -38 51 -40 65 l-3 25 -735 5
c-425 3 -722 9 -705 13 17 5 72 20 123 33 103 26 225 74 273 107 29 20 59 79
59 117 0 8 -21 60 -46 115 -25 55 -69 154 -98 220 -77 174 -214 474 -236 515
-10 19 -63 134 -118 256 -86 190 -246 520 -258 533 -2 2 -6 2 -9 -1 -3 -2 9
-45 27 -94 l32 -90 -78 -164 c-358 -752 -359 -753 -320 -809 29 -40 164 -85
339 -112 44 -6 87 -16 95 -20 8 -5 -239 -9 -550 -9 -311 0 -582 -3 -602 -6
-73 -12 -37 12 77 50 63 21 150 56 194 78 99 47 120 75 244 328 48 96 108 216
134 266 26 50 54 107 62 125 8 19 41 90 73 159 33 69 66 139 73 155 7 17 53
113 101 215 47 102 128 275 179 385 119 258 245 509 252 502 2 -3 -7 -46 -21
-96 -14 -49 -26 -105 -26 -123 0 -19 24 -90 56 -163 98 -224 376 -850 507
-1140 49 -110 102 -229 117 -265 15 -36 74 -168 132 -295 58 -126 138 -304
179 -394 66 -147 79 -168 120 -201 74 -58 290 -163 305 -147 3 3 -4 18 -15 34
-37 50 -161 331 -154 349 4 12 3 15 -5 10 -14 -8 -16 13 -3 33 5 8 14 10 21 6
8 -5 11 -3 8 6 -7 20 50 67 78 64 14 -1 27 2 30 6 3 5 14 9 24 9 14 0 18 5 13
17 -4 11 -3 14 5 9 7 -4 12 -1 12 8 0 9 6 16 13 17 6 1 19 2 27 3 8 2 24 3 36
4 12 1 26 14 33 30 7 15 10 24 6 20 -7 -7 -33 17 -51 48 -14 25 -50 33 -41 9
4 -9 3 -14 -3 -10 -6 3 -10 1 -10 -4 0 -6 -5 -11 -11 -11 -5 0 -8 4 -4 9 3 5
-3 16 -13 23 -28 20 -52 74 -39 87 16 16 3 23 -26 12 -18 -7 -28 -7 -33 0 -3
6 -14 1 -25 -12 -10 -12 -19 -17 -19 -10 0 7 -5 9 -11 5 -7 -4 -10 -2 -7 6 2
7 23 27 46 43 l43 31 25 -32 c14 -18 32 -32 40 -32 8 0 14 -5 14 -11 0 -5 5
-7 12 -3 7 5 2 15 -17 32 -29 24 -42 52 -24 52 5 0 7 18 5 39 -3 32 -1 38 11
34 8 -3 13 -14 10 -24 -3 -11 -1 -22 4 -25 5 -3 9 2 9 10 0 9 5 16 10 16 6 0
10 -5 10 -12 0 -6 3 -8 7 -4 4 4 -5 18 -19 31 -15 14 -31 32 -36 41 -13 24
-46 10 -39 -16 7 -26 4 -25 -29 5 -21 20 -25 28 -16 37 7 7 12 9 12 4 0 -4 7
-1 15 8 8 8 15 19 15 25 0 6 6 11 14 11 7 0 25 9 40 21 15 11 32 22 39 24 41
10 57 19 54 29 -3 6 -10 10 -16 8 -7 -1 -10 2 -7 7 3 5 -2 19 -12 32 -26 33
-32 55 -20 67 6 6 1 8 -16 5 -14 -3 -26 -10 -26 -16 0 -6 -3 -7 -7 -4 -4 4
-19 -5 -35 -20 -15 -15 -28 -23 -28 -19 0 5 -6 4 -12 -1 -7 -6 -20 -10 -28
-10 -8 0 -24 -3 -35 -6 -17 -6 -23 0 -38 34 -16 36 -16 45 -3 95 8 31 21 63
29 72 8 10 18 38 21 65 4 26 11 45 16 42 5 -3 15 8 23 25 14 26 14 30 1 30
-23 0 -64 -31 -64 -47 0 -13 -3 -13 -16 -2 -12 10 -17 10 -23 0 -6 -10 -10 -8
-15 5 -3 9 -9 14 -13 11 -3 -4 -12 -2 -20 4 -7 6 -13 8 -13 3 0 -4 -6 1 -14
12 -16 22 -11 70 11 95 8 9 13 22 11 29 -3 15 37 40 65 40 9 0 17 5 17 10 0 6
6 10 13 10 8 0 22 10 33 22 11 13 13 18 4 12 -32 -19 -105 -33 -118 -21 -10 8
-16 7 -22 -2 -5 -9 -10 -10 -14 -2 -4 6 -2 11 4 11 6 0 8 5 5 10 -3 6 -15 10
-26 10 -13 0 -19 7 -19 23 l0 22 -19 -24 -18 -24 -7 33 c-6 32 -7 33 -26 15
-24 -22 -27 -9 -4 16 15 16 14 17 -5 12 -24 -6 -29 12 -5 21 27 10 72 7 77 -6
4 -9 12 -5 26 12 18 22 18 26 5 36 -12 10 -11 13 8 19 13 4 28 7 34 6 6 -1 15
8 20 18 11 24 132 105 191 127 24 9 43 23 43 30 0 7 -6 11 -14 8 -7 -3 -21 2
-30 11 -9 9 -16 13 -16 8 0 -9 -20 18 -20 28 0 10 37 49 47 49 5 0 16 -11 23
-25 20 -38 48 -42 79 -11 23 23 26 35 27 99 1 39 2 117 3 172 3 132 4 125 -20
125 -20 0 -21 4 -16 45 4 43 4 45 -13 30 -9 -8 -28 -43 -41 -75 -29 -74 -78
-130 -143 -164 -61 -32 -76 -33 -76 -3 0 50 40 107 109 156 39 28 39 36 -1 36
-26 0 -34 4 -36 22 -2 14 -8 20 -18 16 -10 -4 -12 0 -8 13 6 16 2 15 -20 -5
-18 -17 -30 -21 -37 -14 -7 7 1 26 26 62 37 55 42 66 25 56 -16 -10 -12 0 10
25 11 12 17 27 14 32 -6 10 -54 -49 -54 -67 0 -19 -128 -74 -172 -75 -21 0
-22 4 -8 31 11 19 10 19 -22 -1 -45 -27 -78 -26 -79 3 0 12 -3 16 -6 10 -2 -7
-15 -13 -27 -13 -12 0 -28 6 -35 13 -10 10 -11 8 -5 -7 6 -16 4 -18 -11 -13
-9 4 -23 3 -30 -3 -13 -11 -45 -4 -45 10 0 13 29 32 39 25 6 -3 8 0 5 8 -3 8
2 17 10 20 20 8 156 111 151 115 -3 3 -45 -20 -147 -81 -16 -9 -34 -15 -39
-11 -6 3 -19 -3 -30 -15 -11 -11 -34 -28 -52 -37 -18 -9 -51 -32 -74 -51 -27
-22 -50 -33 -65 -31 -21 3 -17 10 45 73 39 41 65 76 62 84 -3 7 0 20 6 28 7 7
9 16 6 20 -4 3 -3 11 2 17 5 7 2 18 -9 29 -17 18 -19 17 -45 -18 -33 -42 -43
-40 -20 5 9 17 14 38 11 46 -3 8 1 14 10 14 12 0 14 7 9 30 -4 20 -1 37 9 52
9 12 16 28 16 34 0 19 -50 27 -69 11 -9 -7 -40 -23 -68 -35 -62 -25 -68 -14
-20 37 17 18 25 30 17 26 -19 -10 -158 -113 -188 -139 -12 -11 -29 -21 -37
-22 -20 -3 -19 25 0 32 27 11 16 21 -20 19 -19 -1 -35 2 -35 7 0 4 6 8 13 8
16 0 50 34 41 42 -11 12 -40 -5 -70 -43 -27 -33 -34 -36 -44 -24 -7 8 -19 15
-26 15 -17 0 -17 5 -4 31 8 15 7 19 -5 19 -10 0 4 24 39 67 30 37 53 69 51 72
-2 2 -11 -4 -20 -13 -36 -36 -33 -13 4 37 62 81 20 74 -72 -12 -38 -35 -48
-41 -43 -24 7 21 6 22 -20 8 -30 -15 -54 -10 -54 12 0 8 -5 11 -11 7 -8 -4 -9
3 -4 26 7 32 35 61 121 127 24 19 44 38 44 44 0 17 -58 -23 -117 -81 -31 -30
-60 -54 -64 -53 -5 2 -6 -4 -3 -11 5 -14 -69 -96 -87 -96 -16 0 -9 19 12 34
15 10 19 20 14 35 l-6 21 -28 -20 c-16 -10 -31 -17 -34 -13 -4 3 -9 -2 -13
-11 -11 -28 3 -29 33 -2 27 26 43 33 43 19 0 -4 -21 -26 -46 -50 -31 -28 -53
-41 -68 -39 -28 5 -56 -11 -56 -32 0 -13 -2 -14 -9 -4 -6 10 -19 6 -57 -19
-27 -18 -50 -36 -52 -41 -2 -4 -10 -4 -18 -1 -7 3 -16 -2 -20 -10 -3 -9 -12
-18 -20 -21 -17 -7 -13 2 23 50 24 33 30 54 13 54 -5 0 -10 -5 -10 -10 0 -6
-9 -20 -19 -32 -23 -24 -51 -18 -51 11 0 11 -4 23 -10 26 -5 3 -10 13 -10 21
0 8 -11 27 -25 42 l-26 27 6 -40 c3 -22 7 -60 9 -85 3 -25 8 -55 12 -67 16
-57 -39 -5 -73 67 -36 76 -36 85 -7 120 24 28 28 42 29 105 l2 72 -40 27 c-23
14 -49 26 -58 26 -10 0 -24 18 -37 48 -11 26 -21 44 -21 41z m499 -413 c0 -9
-64 -82 -78 -90 -13 -7 -15 -6 -5 4 6 7 9 19 6 26 -3 8 5 17 19 23 13 5 30 16
37 25 13 15 21 20 21 12z m750 -380 c0 -3 -4 -8 -10 -11 -5 -3 -10 -1 -10 4 0
6 5 11 10 11 6 0 10 -2 10 -4z m575 -56 c-3 -5 -11 -10 -16 -10 -6 0 -7 5 -4
10 3 6 11 10 16 10 6 0 7 -4 4 -10z m-13 -72 c-7 -7 -12 -8 -12 -2 0 6 3 14 7
17 3 4 9 5 12 2 2 -3 -1 -11 -7 -17z m-15 -40 c-3 -8 -6 -5 -6 6 -1 11 2 17 5
13 3 -3 4 -12 1 -19z m387 -35 c-9 -34 -8 -95 1 -149 9 -52 -11 -154 -31 -154
-20 0 -18 73 2 127 21 53 12 65 -20 30 -14 -15 -32 -27 -39 -27 -18 0 -29 27
-22 51 9 28 73 132 87 141 23 14 29 9 22 -19z m-2399 -322 c3 -5 1 -12 -5 -16
-5 -3 -10 -1 -10 5 0 6 -5 8 -12 4 -7 -4 -8 -3 -4 4 9 14 23 15 31 3z m40 -1
c3 -5 1 -10 -4 -10 -6 0 -11 5 -11 10 0 6 2 10 4 10 3 0 8 -4 11 -10z m1 -44
c17 -13 17 -14 1 -12 -19 2 -47 26 -31 26 6 0 19 -6 30 -14z m-22 -46 c7 -23
6 -22 -13 5 -24 34 -28 53 -7 33 7 -8 17 -25 20 -38z m-14 -160 c0 -5 -7 -10
-15 -10 -8 0 -15 5 -15 10 0 6 7 10 15 10 8 0 15 -4 15 -10z m-116 -119 c10
-17 15 -35 12 -38 -9 -9 -42 27 -51 56 -10 34 15 23 39 -18z m-73 -53 c8 -15
8 -18 0 -14 -6 4 -16 16 -22 28 -8 15 -8 18 0 14 6 -4 16 -16 22 -28z m2325
-594 c-4 -9 -9 -15 -11 -12 -3 3 -3 13 1 22 4 9 9 15 11 12 3 -3 3 -13 -1 -22z
m-2962 -323 c3 -4 3 -11 0 -14 -8 -8 -34 3 -34 14 0 11 27 12 34 0z m76 -30
c0 -5 -5 -22 -11 -38 -8 -22 -12 -24 -19 -13 -17 27 -12 60 10 60 11 0 20 -4
20 -9z m2980 -10 c0 -5 -6 -11 -13 -14 -8 -3 -14 1 -14 9 0 8 6 14 14 14 7 0
13 -4 13 -9z m-3063 -268 c-11 -25 -22 -29 -32 -13 -3 6 -2 10 4 10 6 0 8 7 5
15 -4 8 -10 12 -15 9 -11 -6 -11 -1 -3 20 5 14 8 14 29 -2 19 -14 21 -21 12
-39z m3017 48 c3 -4 -6 -6 -19 -3 -14 2 -25 6 -25 8 0 8 39 4 44 -5z m-3078
-38 c-7 -7 -26 7 -26 19 0 6 6 6 15 -2 9 -7 13 -15 11 -17z m112 -28 c-3 -3
-9 2 -12 12 -6 14 -5 15 5 6 7 -7 10 -15 7 -18z m-2 -20 c25 -19 14 -19 -22 0
-16 8 -22 15 -13 15 8 0 24 -7 35 -15z m60 -101 c-16 -15 -36 -19 -36 -6 0 13
7 18 30 19 18 2 18 0 6 -13z m38 -30 c9 -22 8 -24 -9 -24 -8 0 -15 9 -15 20 0
24 15 27 24 4z m-50 -20 c3 -8 2 -12 -4 -9 -6 3 -10 10 -10 16 0 14 7 11 14
-7z m-143 -11 c13 -16 12 -17 -3 -4 -10 7 -18 15 -18 17 0 8 8 3 21 -13z m47
-38 c-3 -3 -9 2 -12 12 -6 14 -5 15 5 6 7 -7 10 -15 7 -18z m50 -14 c31 -27
27 -33 -8 -13 -16 9 -30 20 -30 25 0 12 14 7 38 -12z m1287 -520 c-3 -5 -1
-12 5 -16 5 -3 10 -1 10 4 0 6 8 11 18 11 13 0 14 -2 3 -9 -11 -7 -10 -13 3
-32 27 -43 47 -112 40 -143 -6 -28 -7 -29 -20 -11 -13 18 -14 17 -14 -7 0 -14
-7 -28 -15 -32 -9 -3 -15 0 -15 9 0 8 -6 15 -13 15 -7 0 -18 5 -25 12 -6 6
-22 13 -34 15 -12 2 -24 6 -26 8 -3 3 8 35 24 72 15 38 27 78 25 91 -2 17 3
22 19 22 12 0 19 -4 15 -9z m-415 -21 c0 -5 -2 -10 -4 -10 -3 0 -8 5 -11 10
-3 6 -1 10 4 10 6 0 11 -4 11 -10z m-30 -39 c-9 -17 -13 -19 -24 -9 -8 7 -12
17 -9 22 3 4 9 3 13 -4 5 -8 9 -7 14 6 3 9 9 14 12 11 3 -3 1 -15 -6 -26z m40
0 c0 -12 -20 -25 -27 -18 -7 7 6 27 18 27 5 0 9 -4 9 -9z m1857 -36 c0 -8 -4
-15 -9 -15 -10 0 -11 14 -1 23 9 10 10 9 10 -8z m-1927 -15 c0 -5 -5 -10 -11
-10 -5 0 -7 5 -4 10 3 6 8 10 11 10 2 0 4 -4 4 -10z m80 -25 c-13 -14 -26 -22
-29 -19 -3 3 5 14 18 25 33 27 39 24 11 -6z m2188 -10 c-3 -3 -9 2 -12 12 -6
14 -5 15 5 6 7 -7 10 -15 7 -18z m-2295 0 c-3 -9 -8 -14 -10 -11 -3 3 -2 9 2
15 9 16 15 13 8 -4z"/>
<path d="M3567 4619 c4 -13 8 -18 11 -10 2 7 -1 18 -6 23 -8 8 -9 4 -5 -13z"/>
<path d="M3379 4563 c-13 -17 -13 -17 6 -3 11 8 22 16 24 17 2 2 0 3 -6 3 -6
0 -17 -8 -24 -17z"/>
<path d="M3315 4501 c-8 -14 16 -61 32 -61 17 0 16 4 -2 40 -17 32 -21 35 -30
21z"/>
<path d="M2690 4489 c0 -5 5 -7 10 -4 6 3 10 8 10 11 0 2 -4 4 -10 4 -5 0 -10
-5 -10 -11z"/>
<path d="M2550 4480 c0 -5 5 -10 11 -10 5 0 7 5 4 10 -3 6 -8 10 -11 10 -2 0
-4 -4 -4 -10z"/>
<path d="M4270 4425 c-17 -25 -28 -50 -25 -55 4 -6 2 -9 -2 -8 -5 2 -31 -24
-58 -57 -27 -33 -51 -62 -54 -65 -3 -3 -16 -17 -29 -31 l-22 -26 30 5 c23 3
44 21 88 76 60 74 122 167 122 181 0 5 -11 -6 -25 -25 -30 -41 -33 -34 -4 14
30 51 16 45 -21 -9z"/>
<path d="M3381 4264 c-15 -11 -19 -20 -13 -26 13 -13 28 -4 35 22 6 24 7 24
-22 4z"/>
<path d="M1935 4260 c3 -5 8 -10 11 -10 2 0 4 5 4 10 0 6 -5 10 -11 10 -5 0
-7 -4 -4 -10z"/>
<path d="M1824 4185 c-7 -17 3 -35 18 -35 7 0 6 5 -2 15 -6 8 -9 19 -5 25 3 5
4 10 0 10 -3 0 -8 -7 -11 -15z"/>
<path d="M1860 3927 c0 -14 30 -47 43 -47 3 0 4 7 1 15 -4 8 -10 12 -15 9 -5
-3 -9 2 -9 10 0 8 -4 18 -10 21 -5 3 -10 0 -10 -8z"/>
<path d="M1534 3487 c3 -10 6 -33 7 -50 l1 -32 11 33 c9 28 7 36 -8 50 -17 16
-17 16 -11 -1z"/>
<path d="M2523 3220 c12 -8 16 -18 11 -33 -5 -18 -4 -20 7 -9 15 14 3 43 -22
49 -8 3 -6 -1 4 -7z"/>
<path d="M3999 3069 c-15 -15 -13 -16 30 -15 35 1 47 5 49 18 3 14 -3 17 -30
16 -18 -1 -40 -9 -49 -19z"/>
<path d="M990 2714 c0 -15 26 -19 34 -5 3 5 -3 11 -14 14 -13 3 -20 0 -20 -9z"/>
<path d="M912 2510 c0 -14 2 -19 5 -12 2 6 2 18 0 25 -3 6 -5 1 -5 -13z"/>
<path d="M652 2380 c-15 -24 -16 -40 -2 -40 6 0 10 9 10 21 0 12 5 19 12 17
13 -5 16 -14 43 -128 l15 -65 -4 67 c-3 63 -30 138 -52 145 -5 2 -15 -6 -22
-17z"/>
<path d="M852 2230 c0 -19 2 -27 5 -17 2 9 2 25 0 35 -3 9 -5 1 -5 -18z"/>
<path d="M4124 2146 c-9 -24 12 -44 28 -28 10 10 8 16 -5 29 -15 15 -17 15
-23 -1z"/>
<path d="M420 2130 c6 -11 13 -20 16 -20 2 0 0 9 -6 20 -6 11 -13 20 -16 20
-2 0 0 -9 6 -20z"/>
<path d="M1840 2060 c0 -5 5 -10 10 -10 6 0 10 5 10 10 0 6 -4 10 -10 10 -5 0
-10 -4 -10 -10z"/>
<path d="M1890 2054 c0 -8 5 -12 10 -9 6 4 8 11 5 16 -9 14 -15 11 -15 -7z"/>
<path d="M820 1990 c0 -5 5 -10 11 -10 5 0 7 5 4 10 -3 6 -8 10 -11 10 -2 0
-4 -4 -4 -10z"/>
<path d="M470 1911 c0 -6 4 -13 10 -16 6 -3 7 1 4 9 -7 18 -14 21 -14 7z"/>
<path d="M860 1636 c0 -2 7 -7 16 -10 8 -3 12 -2 9 4 -6 10 -25 14 -25 6z"/>
<path d="M3930 1538 c0 -9 5 -20 11 -23 17 -11 20 0 4 21 -13 17 -14 17 -15 2z"/>
<path d="M3100 1446 c0 -9 7 -16 16 -16 17 0 14 22 -4 28 -7 2 -12 -3 -12 -12z"/>
<path d="M3710 770 c0 -5 5 -10 10 -10 6 0 10 5 10 10 0 6 -4 10 -10 10 -5 0
-10 -4 -10 -10z"/>
<path d="M1420 760 c0 -6 7 -10 15 -10 8 0 15 2 15 4 0 2 -7 6 -15 10 -8 3
-15 1 -15 -4z"/>
<path d="M1782 750 c0 -14 2 -19 5 -12 2 6 2 18 0 25 -3 6 -5 1 -5 -13z"/>
<path d="M1205 750 c-8 -13 -1 -24 14 -19 6 3 7 10 2 18 -6 10 -10 10 -16 1z"/>
<path d="M1707 714 c-4 -4 -7 -17 -7 -28 1 -19 1 -20 11 -3 11 19 8 43 -4 31z"/>
<path d="M3442 293 c-8 -3 -1 -15 20 -34 47 -41 62 -39 32 6 -17 26 -33 34
-52 28z"/>
<path d="M2230 44 c0 -8 5 -12 10 -9 6 3 10 10 10 16 0 5 -4 9 -10 9 -5 0 -10
-7 -10 -16z"/>
</g>
</svg>
